<?xml version="1.0" encoding="UTF-8"?>
<!DOCTYPE svg PUBLIC "-//W3C//DTD SVG 1.1//EN" "http://www.w3.org/Graphics/SVG/1.1/DTD/svg11.dtd">
<svg xmlns="http://www.w3.org/2000/svg" version="1.1" width="920px" height="296px" style="shape-rendering:geometricPrecision; text-rendering:geometricPrecision; image-rendering:optimizeQuality; fill-rule:evenodd; clip-rule:evenodd" xmlns:xlink="http://www.w3.org/1999/xlink">
<g><path style="opacity:1" fill="#d5b589" d="M -0.5,-0.5 C 306.167,-0.5 612.833,-0.5 919.5,-0.5C 919.5,98.1667 919.5,196.833 919.5,295.5C 612.833,295.5 306.167,295.5 -0.5,295.5C -0.5,196.833 -0.5,98.1667 -0.5,-0.5 Z"/></g>
<g><path style="opacity:1" fill="#f0e8db" d="M 507.5,63.5 C 510.932,63.2479 511.932,64.5812 510.5,67.5C 508.444,65.9806 506.11,65.1472 503.5,65C 505.058,64.79 506.391,64.29 507.5,63.5 Z"/></g>
<g><path style="opacity:1" fill="#ede2d3" d="M 499.5,63.5 C 501.973,63.9473 502.14,64.9473 500,66.5C 499.517,65.552 499.351,64.552 499.5,63.5 Z"/></g>
<g><path style="opacity:1" fill="#e6d5be" d="M 142.5,70.5 C 144.288,70.2148 145.955,70.5481 147.5,71.5C 143.856,72.5799 140.19,73.0799 136.5,73C 138.611,72.1553 140.611,71.322 142.5,70.5 Z"/></g>
<g><path style="opacity:1" fill="#eee5d6" d="M 508.5,71.5 C 509.077,70.2267 509.743,70.2267 510.5,71.5C 510.03,72.463 509.363,72.463 508.5,71.5 Z"/></g>
<g><path style="opacity:1" fill="#ece2d1" d="M 524.5,79.5 C 525.601,78.4017 526.934,78.235 528.5,79C 527.838,80.3316 526.672,81.4982 525,82.5C 525.109,81.2312 524.942,80.2312 524.5,79.5 Z"/></g>
<g><path style="opacity:1" fill="#e3cfb3" d="M 135.5,83.5 C 134.065,82.9035 132.398,82.9035 130.5,83.5C 132.201,81.5767 134.201,81.2433 136.5,82.5C 136.376,83.1067 136.043,83.44 135.5,83.5 Z"/></g>
<g><path style="opacity:1" fill="#f6f4ef" d="M 135.5,83.5 C 134.609,84.2613 133.942,85.2613 133.5,86.5C 134.441,86.4895 135.108,86.9895 135.5,88C 135.05,89.2853 134.383,90.452 133.5,91.5C 134.628,92.2621 135.795,92.9288 137,93.5C 137.498,90.1832 137.665,86.8499 137.5,83.5C 143.567,82.1733 149.567,82.5066 155.5,84.5C 156.325,86.7003 157.658,87.0337 159.5,85.5C 160.129,87.9971 161.796,89.3304 164.5,89.5C 162.571,94.0902 161.238,98.5902 160.5,103C 157.02,103.074 153.353,103.24 149.5,103.5C 149.78,100.728 149.113,98.2276 147.5,96C 143.886,95.0642 140.22,94.5642 136.5,94.5C 136.82,97.8984 136.487,101.232 135.5,104.5C 132.242,103.583 128.909,103.249 125.5,103.5C 125.5,101.5 125.5,99.5 125.5,97.5C 125.5,93.1667 125.5,88.8333 125.5,84.5C 126.919,83.5489 128.585,83.2155 130.5,83.5C 132.398,82.9035 134.065,82.9035 135.5,83.5 Z"/></g>
<g><path style="opacity:1" fill="#f5f3ee" d="M 418.5,93.5 C 417.026,94.6751 415.36,95.6751 413.5,96.5C 414.571,98.3255 413.904,99.4921 411.5,100C 408.773,100.818 406.106,100.652 403.5,99.5C 402.433,94.9328 399.6,92.2661 395,91.5C 394.498,88.4869 393.998,85.4869 393.5,82.5C 401.801,81.825 408.468,84.6584 413.5,91C 415.193,91.8466 416.86,92.6799 418.5,93.5 Z"/></g>
<g><path style="opacity:1" fill="#f6f4ef" d="M 587.5,82.5 C 592.805,82.3233 597.805,83.4899 602.5,86C 604.36,89.3603 607.027,91.8603 610.5,93.5C 607.783,99.855 603.117,101.855 596.5,99.5C 595.46,94.9605 592.626,92.2938 588,91.5C 587.502,88.5184 587.335,85.5184 587.5,82.5 Z"/></g>
<g><path style="opacity:1" fill="#f5f3ed" d="M 112.5,87.5 C 113.609,88.29 114.942,88.79 116.5,89C 114.833,89.3333 113.167,89.6667 111.5,90C 112.025,90.6924 112.692,91.1924 113.5,91.5C 117.172,89.9503 117.839,90.4503 115.5,93C 116.756,93.4169 117.423,94.2502 117.5,95.5C 118.263,96.2679 119.263,96.7679 120.5,97C 119.216,98.2975 119.383,99.4642 121,100.5C 125.364,99.2943 125.531,99.7943 121.5,102C 122.5,102.333 123.5,102.667 124.5,103C 124.167,103.333 123.833,103.667 123.5,104C 121.148,104.24 119.148,105.073 117.5,106.5C 116.222,106.218 115.222,105.551 114.5,104.5C 108.15,105.068 107.483,106.735 112.5,109.5C 113.298,109.043 113.631,108.376 113.5,107.5C 115.5,107.5 117.5,107.5 119.5,107.5C 119.414,108.496 119.748,109.329 120.5,110C 119.299,110.903 118.465,112.069 118,113.5C 117.275,111.842 116.108,111.342 114.5,112C 114.833,112.333 115.167,112.667 115.5,113C 114.167,114.667 112.833,116.333 111.5,118C 112.54,120.043 113.54,122.543 114.5,125.5C 113.366,127.538 113.366,129.538 114.5,131.5C 112.308,134.99 111.974,138.657 113.5,142.5C 109.524,153.411 101.691,158.411 90,157.5C 85.3815,157.15 81.2148,156.484 77.5,155.5C 77.2529,152.061 77.5863,148.728 78.5,145.5C 76.4917,140.077 75.9917,134.41 77,128.5C 77.7096,127.027 78.8762,126.36 80.5,126.5C 80.4679,129.076 81.1346,131.409 82.5,133.5C 80.9719,133.517 80.4719,134.184 81,135.5C 82.8133,135.253 84.6467,134.92 86.5,134.5C 85.675,133.614 84.675,133.281 83.5,133.5C 83.8143,130.511 85.1476,128.178 87.5,126.5C 88.1667,126.5 88.5,126.833 88.5,127.5C 89.6843,128.688 89.6843,129.855 88.5,131C 89.4491,131.617 90.2825,131.451 91,130.5C 91.9774,133.259 91.144,135.259 88.5,136.5C 89.0253,137.192 89.6919,137.692 90.5,138C 88.4054,140.665 88.072,143.498 89.5,146.5C 92.6074,146.649 95.6074,146.149 98.5,145C 99.8932,143.829 100.727,142.329 101,140.5C 101.204,133.783 101.704,127.117 102.5,120.5C 101.212,117.966 101.212,115.466 102.5,113C 100.344,110.214 100.01,107.214 101.5,104C 100.956,101.6 100.289,99.267 99.5,97C 98.1011,96.4054 96.7678,96.5721 95.5,97.5C 93.7638,95.3631 91.7638,94.6964 89.5,95.5C 90.706,97.1491 92.0394,98.6491 93.5,100C 91.3215,100.442 90.6548,101.442 91.5,103C 89.5734,107.544 88.2401,112.378 87.5,117.5C 85.9309,116.286 85.0976,114.619 85,112.5C 84.3292,111.748 83.4959,111.414 82.5,111.5C 81.5009,108.826 79.8342,108.159 77.5,109.5C 76.5301,100.918 76.1968,92.2511 76.5,83.5C 82.5405,83.7474 88.5405,83.4141 94.5,82.5C 101.332,83.8113 107.332,85.478 112.5,87.5 Z"/></g>
<g><path style="opacity:1" fill="#f5f2ec" d="M 243.5,131.5 C 244.246,127.148 244.913,122.648 245.5,118C 245.361,116.699 244.695,115.866 243.5,115.5C 242.906,105.508 242.906,94.8416 243.5,83.5C 247.394,82.4829 251.227,82.4829 255,83.5C 255.333,91.1667 255.667,98.8333 256,106.5C 257.828,108.429 257.495,108.762 255,107.5C 254.608,110.188 254.108,112.855 253.5,115.5C 254.285,120.018 255.618,120.351 257.5,116.5C 258.386,117.325 258.719,118.325 258.5,119.5C 259.5,119.5 260.5,119.5 261.5,119.5C 261.297,117.61 261.963,116.11 263.5,115C 266.554,114.179 269.554,114.345 272.5,115.5C 270.629,118.742 268.629,121.908 266.5,125C 262.508,126.177 260.842,124.677 261.5,120.5C 260.5,120.5 259.5,120.5 258.5,120.5C 258.5,122.5 258.5,124.5 258.5,126.5C 257.5,126.5 256.5,126.5 255.5,126.5C 254.734,133.032 254.067,141.532 253.5,152C 254.872,153.242 255.872,154.742 256.5,156.5C 252.541,157.66 248.541,157.827 244.5,157C 245.081,156.107 245.415,155.107 245.5,154C 243.777,146.605 243.11,139.105 243.5,131.5 Z"/></g>
<g><path style="opacity:1" fill="#f5f2ed" d="M 257.5,83.5 C 264.508,83.3337 271.508,83.5004 278.5,84C 281.167,84.6667 281.167,85.3333 278.5,86C 282.251,86.7614 282.417,87.9281 279,89.5C 278.654,91.2182 278.154,92.8849 277.5,94.5C 271.202,95.4963 264.868,95.8297 258.5,95.5C 258.167,91.5 257.833,87.5 257.5,83.5 Z"/></g>
<g><path style="opacity:1" fill="#f5f2ed" d="M 322.5,87.5 C 323.609,88.29 324.942,88.79 326.5,89C 324.833,89.3333 323.167,89.6667 321.5,90C 322.025,90.6924 322.692,91.1924 323.5,91.5C 327.172,89.9503 327.839,90.4503 325.5,93C 326.381,93.7083 327.047,94.5416 327.5,95.5C 328.263,96.2679 329.263,96.7679 330.5,97C 329.216,98.2975 329.383,99.4642 331,100.5C 335.364,99.2943 335.531,99.7943 331.5,102C 332.784,102.684 333.951,102.517 335,101.5C 335.499,95.5092 335.666,89.5092 335.5,83.5C 339.394,82.4829 343.227,82.4829 347,83.5C 347.333,91.1667 347.667,98.8333 348,106.5C 349.922,109.668 349.588,110.001 347,107.5C 345.929,111.204 345.762,114.871 346.5,118.5C 346.833,118.833 347.167,119.167 347.5,119.5C 348.113,118.02 348.446,116.687 348.5,115.5C 349.833,116.833 351.167,118.167 352.5,119.5C 353.623,115.379 356.29,113.712 360.5,114.5C 360.782,115.778 361.449,116.778 362.5,117.5C 361.788,119.928 360.788,122.261 359.5,124.5C 355.302,126.52 352.969,125.187 352.5,120.5C 350.717,122.023 350.051,124.023 350.5,126.5C 349.5,126.5 348.5,126.5 347.5,126.5C 346.351,133.457 346.185,142.457 347,153.5C 347.5,154.5 348,155.5 348.5,156.5C 344.541,157.66 340.541,157.827 336.5,157C 335.427,146.601 335.427,136.101 336.5,125.5C 336.344,122.934 336.678,120.434 337.5,118C 337.046,115.97 336.38,114.137 335.5,112.5C 334.833,112.5 334.5,112.167 334.5,111.5C 335.802,108.893 335.636,106.227 334,103.5C 331.433,104.27 328.933,105.27 326.5,106.5C 325.833,105.833 325.167,105.167 324.5,104.5C 318.109,105.104 317.443,106.771 322.5,109.5C 325.676,106.683 328.343,107.017 330.5,110.5C 329.21,111.058 328.377,112.058 328,113.5C 327.275,111.842 326.108,111.342 324.5,112C 324.833,112.333 325.167,112.667 325.5,113C 324.167,114.667 322.833,116.333 321.5,118C 322.54,120.043 323.54,122.543 324.5,125.5C 323.366,127.538 323.366,129.538 324.5,131.5C 322.308,134.99 321.974,138.657 323.5,142.5C 319.711,153.14 312.211,158.14 301,157.5C 296.045,157.189 291.545,156.522 287.5,155.5C 287.253,152.061 287.586,148.728 288.5,145.5C 286.492,140.077 285.992,134.41 287,128.5C 287.71,127.027 288.876,126.36 290.5,126.5C 290.273,129.438 291.273,131.771 293.5,133.5C 293.814,130.511 295.148,128.178 297.5,126.5C 298.167,126.5 298.5,126.833 298.5,127.5C 299.684,128.688 299.684,129.855 298.5,131C 299.449,131.617 300.282,131.451 301,130.5C 301.977,133.259 301.144,135.259 298.5,136.5C 299.025,137.192 299.692,137.692 300.5,138C 298.405,140.665 298.072,143.498 299.5,146.5C 303.459,146.929 306.959,145.929 310,143.5C 311.095,135.861 311.928,128.195 312.5,120.5C 310.984,113.032 310.151,105.366 310,97.5C 308.542,96.2532 307.042,96.2532 305.5,97.5C 303.764,95.3631 301.764,94.6964 299.5,95.5C 300.706,97.1491 302.039,98.6491 303.5,100C 302.058,100.377 301.058,101.21 300.5,102.5C 298.798,104.8 298.132,107.467 298.5,110.5C 298.808,112.924 298.474,115.257 297.5,117.5C 295.931,116.286 295.098,114.619 295,112.5C 294.329,111.748 293.496,111.414 292.5,111.5C 291.501,108.826 289.834,108.159 287.5,109.5C 286.53,100.918 286.197,92.2511 286.5,83.5C 292.541,83.7474 298.541,83.4141 304.5,82.5C 311.332,83.8113 317.332,85.478 322.5,87.5 Z"/></g>
<g><path style="opacity:1" fill="#f5f3ed" d="M 349.5,83.5 C 356.508,83.3337 363.508,83.5004 370.5,84C 373.167,84.6667 373.167,85.3333 370.5,86C 374.251,86.7614 374.417,87.9281 371,89.5C 370.654,91.2182 370.154,92.8849 369.5,94.5C 363.202,95.4963 356.868,95.8297 350.5,95.5C 350.354,91.4809 350.021,87.4809 349.5,83.5 Z"/></g>
<g><path style="opacity:1" fill="#f5f3ed" d="M 378.5,96.5 C 379.222,96.9175 379.722,97.5842 380,98.5C 380.621,94.7504 381.454,91.0838 382.5,87.5C 385.095,85.3712 388.095,84.0378 391.5,83.5C 391.227,85.451 391.893,86.951 393.5,88C 392.555,92.1677 391.555,96.3344 390.5,100.5C 390.552,103.322 391.219,105.989 392.5,108.5C 391.397,108.998 390.397,109.331 389.5,109.5C 392.492,113.401 392.825,117.401 390.5,121.5C 381.428,114.863 377.928,107.53 380,99.5C 379.667,99.8333 379.333,100.167 379,100.5C 378.51,99.2068 378.343,97.8734 378.5,96.5 Z"/></g>
<g><path style="opacity:1" fill="#f5f3ed" d="M 524.5,155.5 C 526.255,152.91 525.588,151.243 522.5,150.5C 518.621,137.741 514.454,125.075 510,112.5C 509.5,127.83 509.333,143.163 509.5,158.5C 505.833,158.5 502.167,158.5 498.5,158.5C 498.5,145.833 498.5,133.167 498.5,120.5C 498.5,119.5 498.5,118.5 498.5,117.5C 498.5,108.833 498.5,100.167 498.5,91.5C 495.477,91.1052 494.477,92.1052 495.5,94.5C 494.635,95.5827 493.635,95.7494 492.5,95C 493.684,93.8545 493.684,92.6879 492.5,91.5C 492.47,90.5028 492.97,89.8361 494,89.5C 495.44,90.1476 496.94,90.4809 498.5,90.5C 498.5,89.5 498.5,88.5 498.5,87.5C 497.209,87.7373 496.209,87.404 495.5,86.5C 497.359,86.5391 498.692,85.7058 499.5,84C 508.095,80.9626 512.762,83.7959 513.5,92.5C 513.291,93.9945 512.624,95.1612 511.5,96C 512.766,96.3095 513.933,96.8095 515,97.5C 518.805,109.056 522.138,120.723 525,132.5C 524.891,122.315 525.724,112.315 527.5,102.5C 526.62,100.571 525.62,98.7374 524.5,97C 525.123,92.3918 525.457,87.8918 525.5,83.5C 529.24,83.2408 532.906,83.5741 536.5,84.5C 537.181,92.3909 537.848,100.224 538.5,108C 537.674,124.426 537.174,140.926 537,157.5C 533.256,158.626 529.423,158.793 525.5,158C 524.748,157.329 524.414,156.496 524.5,155.5 Z"/></g>
<g><path style="opacity:1" fill="#f5f3ed" d="M 584.5,112.5 C 584.263,113.791 584.596,114.791 585.5,115.5C 585.5,115.833 585.5,116.167 585.5,116.5C 584.566,117.568 584.232,118.901 584.5,120.5C 584.631,121.239 584.464,121.906 584,122.5C 578.194,117.639 574.36,112.305 572.5,106.5C 573.038,104.883 573.371,103.216 573.5,101.5C 571.757,99.8739 571.257,97.8739 572,95.5C 572.333,96.1667 572.667,96.8333 573,97.5C 573.515,89.4886 577.682,84.8219 585.5,83.5C 585.791,89.3114 585.124,94.9781 583.5,100.5C 583.481,103.188 584.148,105.688 585.5,108C 584.616,109.098 583.616,109.598 582.5,109.5C 583.612,110.265 584.279,111.265 584.5,112.5 Z"/></g>
<g><path style="opacity:1" fill="#f5f3ed" d="M 749.5,87.5 C 750.609,88.29 751.942,88.79 753.5,89C 751.833,89.3333 750.167,89.6667 748.5,90C 748.833,90.3333 749.167,90.6667 749.5,91C 751.107,90.9813 752.774,90.8146 754.5,90.5C 754.423,91.7498 753.756,92.5831 752.5,93C 753.527,93.5133 754.527,94.0133 755.5,94.5C 754.34,96.2027 755.007,96.8693 757.5,96.5C 757.343,97.8734 757.51,99.2068 758,100.5C 762.364,99.2943 762.531,99.7943 758.5,102C 759.5,102.333 760.5,102.667 761.5,103C 758.707,104.654 755.707,105.821 752.5,106.5C 754.294,107.233 755.961,108.233 757.5,109.5C 757.5,109.833 757.5,110.167 757.5,110.5C 756.21,111.058 755.377,112.058 755,113.5C 753.933,111.717 752.433,111.217 750.5,112C 751.167,112.333 751.833,112.667 752.5,113C 750.893,114.049 750.227,115.549 750.5,117.5C 748.376,116.969 746.876,115.635 746,113.5C 745.333,114.833 745.333,116.167 746,117.5C 748.509,118.107 750.009,119.107 750.5,120.5C 751.042,127.473 751.375,134.473 751.5,141.5C 747.531,152.652 739.698,157.985 728,157.5C 722.992,157.159 718.325,156.493 714,155.5C 713.238,151.668 713.738,148.002 715.5,144.5C 715.192,143.692 714.692,143.025 714,142.5C 713.501,138.514 713.334,134.514 713.5,130.5C 712.448,130.649 711.448,130.483 710.5,130C 712.927,129.373 714.927,128.206 716.5,126.5C 715.739,128.259 716.072,129.926 717.5,131.5C 718.833,131.5 719.5,132.167 719.5,133.5C 717.972,133.517 717.472,134.184 718,135.5C 719.425,134.788 720.925,134.621 722.5,135C 722.833,134.667 723.167,134.333 723.5,134C 722.552,133.517 721.552,133.351 720.5,133.5C 721.301,131.958 721.634,130.292 721.5,128.5C 723.017,128.489 724.184,127.823 725,126.5C 725.198,128.382 725.698,130.048 726.5,131.5C 726.435,131.938 726.601,132.272 727,132.5C 727.763,129.937 728.263,129.937 728.5,132.5C 728.272,134.397 727.272,135.73 725.5,136.5C 726.025,137.192 726.692,137.692 727.5,138C 725.405,140.665 725.072,143.498 726.5,146.5C 731.126,147.3 734.96,145.966 738,142.5C 738.333,135.5 738.667,128.5 739,121.5C 741.096,120.285 740.929,119.451 738.5,119C 738.501,114.162 738.835,109.162 739.5,104C 737.926,102.174 737.093,100.007 737,97.5C 735.708,96.2089 734.542,96.2089 733.5,97.5C 726.347,92.9946 725.347,93.6612 730.5,99.5C 726.356,104.659 725.023,110.492 726.5,117C 723.21,117.589 721.71,116.089 722,112.5C 721.329,111.748 720.496,111.414 719.5,111.5C 718.713,109.896 717.38,109.229 715.5,109.5C 714.883,109.389 714.383,109.056 714,108.5C 713.5,100.173 713.334,91.84 713.5,83.5C 719.541,83.7474 725.541,83.4141 731.5,82.5C 739.019,83.6321 745.019,85.2988 749.5,87.5 Z"/></g>
<g><path style="opacity:1" fill="#f5f3ed" d="M 788.5,106.5 C 789.294,109.152 789.96,108.985 790.5,106C 790.333,105.167 790.167,104.333 790,103.5C 789.722,104.416 789.222,105.082 788.5,105.5C 787.761,105.631 787.094,105.464 786.5,105C 788.375,102.802 788.375,100.969 786.5,99.5C 788.835,97.2494 790.668,94.5827 792,91.5C 795.662,88.5058 799.329,85.5058 803,82.5C 811.935,83.4395 817.935,88.1061 821,96.5C 821.758,98.7695 821.591,100.936 820.5,103C 820.895,106.267 821.895,109.267 823.5,112C 822.692,112.308 822.025,112.808 821.5,113.5C 821.846,114.696 822.346,114.696 823,113.5C 823.346,115.218 823.846,116.885 824.5,118.5C 823.758,119.287 822.925,119.953 822,120.5C 822.098,126.62 821.264,132.454 819.5,138C 819.833,138.333 820.167,138.667 820.5,139C 819.216,139.684 818.049,139.517 817,138.5C 816.431,142.361 815.598,142.361 814.5,138.5C 813.193,137.184 811.693,136.184 810,135.5C 809.667,122.833 809.333,110.167 809,97.5C 804.253,93.0119 800.586,93.6785 798,99.5C 797.156,102.606 797.656,105.439 799.5,108C 799.333,108.5 799.167,109 799,109.5C 798.282,108.549 797.449,108.383 796.5,109C 797.842,120.498 798.342,131.998 798,143.5C 801.955,147.489 805.955,147.489 810,143.5C 813.288,143.658 816.788,143.658 820.5,143.5C 820.132,149.367 817.466,153.867 812.5,157C 800.103,161.043 791.603,157.21 787,145.5C 786.333,132.833 786.333,120.167 787,107.5C 787.383,106.944 787.883,106.611 788.5,106.5 Z"/></g>
<g><path style="opacity:1" fill="#f4f0e9" d="M 173.5,84.5 C 177.437,84.2065 181.27,84.5399 185,85.5C 184.906,89.7566 185.406,94.09 186.5,98.5C 185.863,100.303 184.697,101.636 183,102.5C 180.769,99.482 177.936,98.8153 174.5,100.5C 173.505,95.2079 173.172,89.8746 173.5,84.5 Z"/></g>
<g><path style="opacity:1" fill="#f5f3ed" d="M 209.5,111.5 C 209.5,112.5 209.5,113.5 209.5,114.5C 207.901,114.232 206.568,114.566 205.5,115.5C 205.631,116.239 205.464,116.906 205,117.5C 202.277,113.244 201.11,113.578 201.5,118.5C 200.609,119.11 199.609,119.443 198.5,119.5C 196.916,107.814 195.249,95.8142 193.5,83.5C 197.226,83.1774 200.893,83.5108 204.5,84.5C 205.518,93.5556 207.185,102.556 209.5,111.5 Z"/></g>
<g><path style="opacity:1" fill="#f5f2ec" d="M 230.5,94.5 C 230.232,96.099 230.566,97.4324 231.5,98.5C 231.405,102.47 231.738,106.47 232.5,110.5C 230.129,112.997 229.129,115.997 229.5,119.5C 227.577,119.795 225.91,120.628 224.5,122C 225.549,122.492 226.549,122.326 227.5,121.5C 228.429,122.689 228.762,124.022 228.5,125.5C 226.87,136.54 224.536,147.373 221.5,158C 217.5,158.667 213.5,158.667 209.5,158C 207.939,157.682 206.772,156.849 206,155.5C 204.435,147.176 202.935,138.843 201.5,130.5C 201.585,128.667 202.252,127.334 203.5,126.5C 205.379,125.659 207.379,125.325 209.5,125.5C 209.833,125.5 210.167,125.5 210.5,125.5C 210.335,128.518 210.502,131.518 211,134.5C 211.191,132.292 211.691,130.292 212.5,128.5C 213.162,132.466 213.495,136.466 213.5,140.5C 218.088,140.119 218.422,138.953 214.5,137C 217.493,127.515 219.16,117.682 219.5,107.5C 219.449,105.9 219.116,104.4 218.5,103C 220.481,102.395 220.815,101.395 219.5,100C 221.356,95.386 222.523,90.5526 223,85.5C 224.667,84.1667 226.333,84.1667 228,85.5C 230.017,88.1438 230.85,91.1438 230.5,94.5 Z"/></g>
<g><path style="opacity:1" fill="#f4f0e8" d="M 436.5,101.5 C 436.167,101.5 435.833,101.5 435.5,101.5C 432.828,99.1979 429.828,98.8646 426.5,100.5C 426.5,97.8333 426.5,95.1667 426.5,92.5C 426.5,89.8333 426.5,87.1667 426.5,84.5C 430.437,84.2065 434.27,84.5399 438,85.5C 437.948,89.6564 438.781,93.4897 440.5,97C 439.301,98.6943 437.968,100.194 436.5,101.5 Z"/></g>
<g><path style="opacity:1" fill="#f5f3ed" d="M 482.5,87.5 C 484.208,89.5124 486.208,89.8458 488.5,88.5C 488.443,89.609 488.11,90.609 487.5,91.5C 485.585,91.2155 483.919,91.5489 482.5,92.5C 482.33,93.8221 482.663,94.9887 483.5,96C 486.451,96.096 489.118,96.9293 491.5,98.5C 489.783,98.7906 487.783,99.4572 485.5,100.5C 486.397,100.669 487.397,101.002 488.5,101.5C 487.48,103.432 487.313,105.432 488,107.5C 489.494,106.253 490.994,106.253 492.5,107.5C 490.043,109.062 487.376,110.062 484.5,110.5C 481.853,109.838 479.353,109.838 477,110.5C 476.167,110.333 475.333,110.167 474.5,110C 480.758,107.958 480.425,106.458 473.5,105.5C 473.935,102.162 473.268,99.1625 471.5,96.5C 469.228,97.9408 466.895,98.2741 464.5,97.5C 463.551,100.126 463.551,102.792 464.5,105.5C 463.5,105.5 462.5,105.5 461.5,105.5C 461.167,108.5 462.5,109.833 465.5,109.5C 464.833,111.5 464.167,113.5 463.5,115.5C 462.624,115.369 461.957,115.702 461.5,116.5C 462.265,118.295 462.932,120.128 463.5,122C 460.54,130.373 460.873,138.539 464.5,146.5C 467.614,148.062 470.447,147.729 473,145.5C 474.41,139.621 474.91,133.621 474.5,127.5C 468.5,128.833 466.167,126.5 467.5,120.5C 468.434,119.432 468.768,118.099 468.5,116.5C 470.415,116.784 472.081,116.451 473.5,115.5C 475.857,115.337 478.19,115.503 480.5,116C 480.64,117.264 480.64,118.431 480.5,119.5C 482.55,118.923 483.55,117.59 483.5,115.5C 487.21,116.676 490.876,117.676 494.5,118.5C 494.5,119.5 494.5,120.5 494.5,121.5C 492.473,121.338 490.473,121.505 488.5,122C 488.957,122.414 489.291,122.914 489.5,123.5C 486.531,124.668 486.198,126.001 488.5,127.5C 487.261,129.311 486.594,131.311 486.5,133.5C 486.572,138.618 486.572,143.618 486.5,148.5C 482.991,146.926 481.991,147.926 483.5,151.5C 482.527,152.791 481.527,152.791 480.5,151.5C 479.22,157.355 475.22,160.021 468.5,159.5C 461.577,158.582 456.743,154.916 454,148.5C 453.667,149.5 453.333,150.5 453,151.5C 452.598,150.128 452.098,148.795 451.5,147.5C 451.846,146.304 452.346,146.304 453,147.5C 454.09,144.421 453.257,142.088 450.5,140.5C 450.833,139.833 451.167,139.167 451.5,138.5C 450.644,128.876 449.978,119.209 449.5,109.5C 450.537,104.099 451.537,98.5989 452.5,93C 454.238,89.9993 456.571,87.666 459.5,86C 467.555,84.1562 475.221,84.6562 482.5,87.5 Z"/></g>
<g><path style="opacity:1" fill="#f5f2ec" d="M 682.5,104.5 C 680.833,104.5 679.167,104.5 677.5,104.5C 677.666,113.506 677.5,122.506 677,131.5C 674.975,133.278 675.141,134.611 677.5,135.5C 675.987,139.703 676.82,143.037 680,145.5C 681.411,147.65 682.245,149.984 682.5,152.5C 685.114,152.705 687.448,152.705 689.5,152.5C 686.972,151.483 686.972,150.316 689.5,149C 688.167,148.667 686.833,148.333 685.5,148C 687.09,146.954 688.59,145.787 690,144.5C 690.283,128.32 690.116,112.153 689.5,96C 690.744,95.5439 691.577,96.0439 692,97.5C 692.543,94.8302 692.043,92.3302 690.5,90C 690.735,89.1268 691.069,88.2935 691.5,87.5C 693.881,87.2487 696.214,86.2487 698.5,84.5C 699.5,84.6667 700.5,84.8333 701.5,85C 702.293,88.4106 702.793,91.9106 703,95.5C 704.328,97.0225 704.162,98.6892 702.5,100.5C 703.167,101.167 703.833,101.833 704.5,102.5C 702.704,116.996 701.871,131.662 702,146.5C 700.635,147.593 700.301,148.926 701,150.5C 701.811,149.04 702.645,148.707 703.5,149.5C 699.014,152.455 694.348,155.288 689.5,158C 685.642,158.81 681.976,158.643 678.5,157.5C 679.166,155.327 680.333,154.993 682,156.5C 683.059,156.37 683.892,155.87 684.5,155C 682.063,153.994 679.563,153.494 677,153.5C 676.517,154.448 676.351,155.448 676.5,156.5C 671.234,154.367 668.067,150.367 667,144.5C 667.69,134.346 667.523,124.346 666.5,114.5C 667.5,114.5 668.5,114.5 669.5,114.5C 669.433,113.041 669.766,111.708 670.5,110.5C 671.5,110.5 672.5,110.5 673.5,110.5C 673.336,113.187 673.503,115.854 674,118.5C 674.422,116.645 674.922,114.811 675.5,113C 674.464,107.176 673.464,101.342 672.5,95.5C 671.887,99.7192 671.887,104.386 672.5,109.5C 671.167,109.5 669.833,109.5 668.5,109.5C 667.883,109.611 667.383,109.944 667,110.5C 666.503,108.19 666.337,105.857 666.5,103.5C 666.04,102.558 664.707,101.891 662.5,101.5C 661.378,102.63 660.044,103.297 658.5,103.5C 659.029,101.417 660.029,99.5833 661.5,98C 655.625,96.4761 649.625,95.6427 643.5,95.5C 643.432,104.68 643.432,113.68 643.5,122.5C 642.288,122.07 640.955,122.07 639.5,122.5C 638.5,123.167 637.5,123.833 636.5,124.5C 634.965,125.354 633.632,125.354 632.5,124.5C 632.351,123.448 632.517,122.448 633,121.5C 634.388,122.554 635.888,122.72 637.5,122C 635.975,120.991 634.308,120.491 632.5,120.5C 632.5,113.833 632.5,107.167 632.5,100.5C 632.611,99.8826 632.944,99.3826 633.5,99C 632.198,96.9782 630.532,95.4782 628.5,94.5C 629.11,93.609 629.443,92.609 629.5,91.5C 629.511,89.9826 630.177,88.8159 631.5,88C 631,87.5 630.5,87 630,86.5C 628.89,88.0368 627.39,88.7035 625.5,88.5C 625.5,87.8333 625.5,87.1667 625.5,86.5C 627.821,86.3417 629.654,85.3417 631,83.5C 632.085,84.2931 633.252,84.9598 634.5,85.5C 641.116,84.3718 647.782,84.2052 654.5,85C 655.692,86.9124 656.692,88.9124 657.5,91C 660.051,91.9775 662.718,92.4775 665.5,92.5C 666.48,89.9135 666.813,87.2469 666.5,84.5C 670.167,84.5 673.833,84.5 677.5,84.5C 677.5,86.8333 677.5,89.1667 677.5,91.5C 681.243,91.4592 681.41,92.1259 678,93.5C 677.179,96.5541 677.345,99.5541 678.5,102.5C 680.026,102.994 681.359,103.661 682.5,104.5 Z"/></g>
<g><path style="opacity:1" fill="#f4f1e9" d="M 762.5,84.5 C 766.437,84.2065 770.27,84.5399 774,85.5C 773.906,89.7566 774.406,94.09 775.5,98.5C 774.147,99.6853 772.98,101.019 772,102.5C 769.769,99.482 766.936,98.8153 763.5,100.5C 762.505,95.2079 762.172,89.8746 762.5,84.5 Z"/></g>
<g><path style="opacity:1" fill="#e1cdb0" d="M 167.5,85.5 C 166.662,85.8417 166.328,86.5084 166.5,87.5C 165.5,87.8333 164.833,88.5 164.5,89.5C 161.796,89.3304 160.129,87.9971 159.5,85.5C 161.262,85.3573 162.929,85.6906 164.5,86.5C 165.21,83.3467 166.21,83.0134 167.5,85.5 Z"/></g>
<g><path style="opacity:1" fill="#e7d7c0" d="M 488.5,88.5 C 486.208,89.8458 484.208,89.5124 482.5,87.5C 483.721,86.9717 484.887,86.305 486,85.5C 486.698,86.6906 487.531,87.6906 488.5,88.5 Z"/></g>
<g><path style="opacity:1" fill="#f2ece2" d="M 755.5,94.5 C 756.686,93.0387 756.686,91.7054 755.5,90.5C 755.34,88.8008 755.506,87.1341 756,85.5C 756.772,86.8491 757.939,87.6824 759.5,88C 758.751,89.7337 758.251,91.567 758,93.5C 757.329,94.2524 756.496,94.5858 755.5,94.5 Z"/></g>
<g><path style="opacity:1" fill="#e0cbad" d="M 590.5,87.5 C 595.505,87.443 595.672,88.1097 591,89.5C 589.316,89.3166 589.15,88.6499 590.5,87.5 Z"/></g>
<g><path style="opacity:1" fill="#d7ba91" d="M 629.5,91.5 C 628.577,92.3029 627.577,92.4696 626.5,92C 626.833,91.6667 627.167,91.3333 627.5,91C 625.065,90.9252 624.398,90.0919 625.5,88.5C 627.39,88.7035 628.89,88.0368 630,86.5C 630.5,87 631,87.5 631.5,88C 630.177,88.8159 629.511,89.9826 629.5,91.5 Z"/></g>
<g><path style="opacity:1" fill="#dbc29e" d="M 397.5,87.5 C 401.339,87.6121 401.339,88.2787 397.5,89.5C 396.537,89.0302 396.537,88.3635 397.5,87.5 Z"/></g>
<g><path style="opacity:1" fill="#f1ebe0" d="M 421.5,89.5 C 421.232,91.099 421.566,92.4324 422.5,93.5C 422.719,94.675 422.386,95.675 421.5,96.5C 420.265,95.6602 419.265,94.6602 418.5,93.5C 419.228,90.9205 419.728,88.2538 420,85.5C 420.791,86.745 421.291,88.0783 421.5,89.5 Z"/></g>
<g><path style="opacity:1" fill="#e7d7c0" d="M 495.5,86.5 C 496.209,87.404 497.209,87.7373 498.5,87.5C 498.5,88.5 498.5,89.5 498.5,90.5C 496.94,90.4809 495.44,90.1476 494,89.5C 492.97,89.8361 492.47,90.5028 492.5,91.5C 491.79,88.9177 491.79,86.4177 492.5,84C 492.833,83.8333 493.167,83.6667 493.5,83.5C 494.176,84.6016 494.842,85.6016 495.5,86.5 Z"/></g>
<g><path style="opacity:1" fill="#dcc19d" d="M 94.5,87.5 C 95.5253,89.515 97.192,90.8483 99.5,91.5C 97.2042,93.0034 94.8709,93.3368 92.5,92.5C 94.9458,91.0172 94.6124,89.8505 91.5,89C 92.7375,88.7679 93.7375,88.2679 94.5,87.5 Z"/></g>
<g><path style="opacity:1" fill="#d6b68c" d="M 104.5,90.5 C 105.077,89.2267 105.743,89.2267 106.5,90.5C 106.03,91.463 105.363,91.463 104.5,90.5 Z"/></g>
<g><path style="opacity:1" fill="#dcc29e" d="M 304.5,87.5 C 305.525,89.515 307.192,90.8483 309.5,91.5C 307.204,93.0034 304.871,93.3368 302.5,92.5C 304.946,91.0172 304.612,89.8505 301.5,89C 302.737,88.7679 303.737,88.2679 304.5,87.5 Z"/></g>
<g><path style="opacity:1" fill="#d6b68b" d="M 314.5,90.5 C 315.077,89.2267 315.743,89.2267 316.5,90.5C 316.03,91.463 315.363,91.463 314.5,90.5 Z"/></g>
<g><path style="opacity:1" fill="#dcc3a1" d="M 578.5,88.5 C 579.776,89.3864 579.776,90.3864 578.5,91.5C 577.438,90.5754 577.438,89.5754 578.5,88.5 Z"/></g>
<g><path style="opacity:1" fill="#e4d1b7" d="M 749.5,87.5 C 751.167,87.5 752.833,87.5 754.5,87.5C 754.5,88.5 754.5,89.5 754.5,90.5C 752.774,90.8146 751.107,90.9813 749.5,91C 749.167,90.6667 748.833,90.3333 748.5,90C 750.167,89.6667 751.833,89.3333 753.5,89C 751.942,88.79 750.609,88.29 749.5,87.5 Z"/></g>
<g><path style="opacity:1" fill="#e3d0b5" d="M 112.5,87.5 C 117.693,86.5931 120.359,88.7598 120.5,94C 119.473,94.5133 118.473,95.0133 117.5,95.5C 117.423,94.2502 116.756,93.4169 115.5,93C 117.839,90.4503 117.172,89.9503 113.5,91.5C 112.692,91.1924 112.025,90.6924 111.5,90C 113.167,89.6667 114.833,89.3333 116.5,89C 114.942,88.79 113.609,88.29 112.5,87.5 Z"/></g>
<g><path style="opacity:1" fill="#dfc8a7" d="M 125.5,84.5 C 125.5,88.8333 125.5,93.1667 125.5,97.5C 124.539,95.7354 124.205,93.7354 124.5,91.5C 121.5,91.8333 120.167,90.5 120.5,87.5C 122.124,87.3601 123.29,88.0267 124,89.5C 124.198,87.6183 124.698,85.9516 125.5,84.5 Z"/></g>
<g><path style="opacity:1" fill="#e5d3bb" d="M 144.5,89.5 C 145.552,89.3505 146.552,89.5172 147.5,90C 144.209,94.5815 143.209,94.4148 144.5,89.5 Z"/></g>
<g><path style="opacity:1" fill="#efe6d9" d="M 233.5,96.5 C 232.167,96.5 231.5,97.1667 231.5,98.5C 230.566,97.4324 230.232,96.099 230.5,94.5C 231.478,94.189 232.145,93.5223 232.5,92.5C 231.607,89.9159 231.274,87.2492 231.5,84.5C 232.978,84.238 234.311,84.5713 235.5,85.5C 234.975,86.1924 234.308,86.6924 233.5,87C 234.138,90.0707 234.138,93.2374 233.5,96.5 Z"/></g>
<g><path style="opacity:1" fill="#e3d0b5" d="M 322.5,87.5 C 327.693,86.5931 330.359,88.7598 330.5,94C 329.473,94.5133 328.473,95.0133 327.5,95.5C 327.047,94.5416 326.381,93.7083 325.5,93C 327.839,90.4503 327.172,89.9503 323.5,91.5C 322.692,91.1924 322.025,90.6924 321.5,90C 323.167,89.6667 324.833,89.3333 326.5,89C 324.942,88.79 323.609,88.29 322.5,87.5 Z"/></g>
<g><path style="opacity:1" fill="#dec7a6" d="M 384.5,89.5 C 386.337,89.6395 386.67,90.3061 385.5,91.5C 384.702,91.0431 384.369,90.3764 384.5,89.5 Z"/></g>
<g><path style="opacity:1" fill="#dcc29e" d="M 731.5,87.5 C 732.525,89.515 734.192,90.8483 736.5,91.5C 734.204,93.0034 731.871,93.3368 729.5,92.5C 731.946,91.0172 731.612,89.8505 728.5,89C 729.737,88.7679 730.737,88.2679 731.5,87.5 Z"/></g>
<g><path style="opacity:1" fill="#e7d6c0" d="M 739.5,88.5 C 744.638,90.0006 744.638,91.0006 739.5,91.5C 739.5,90.5 739.5,89.5 739.5,88.5 Z"/></g>
<g><path style="opacity:1" fill="#efe6d8" d="M 167.5,85.5 C 167.461,86.7562 167.961,87.7562 169,88.5C 169.667,87.1667 170.333,87.1667 171,88.5C 171.667,89.8333 171.667,91.1667 171,92.5C 170.667,92.1667 170.333,91.8333 170,91.5C 169.692,92.3081 169.192,92.9747 168.5,93.5C 167.523,91.5891 166.857,89.5891 166.5,87.5C 166.328,86.5084 166.662,85.8417 167.5,85.5 Z"/></g>
<g><path style="opacity:1" fill="#efe6d8" d="M 625.5,86.5 C 625.5,87.1667 625.5,87.8333 625.5,88.5C 624.398,90.0919 625.065,90.9252 627.5,91C 627.167,91.3333 626.833,91.6667 626.5,92C 627.577,92.4696 628.577,92.3029 629.5,91.5C 629.443,92.609 629.11,93.609 628.5,94.5C 626.198,96.0773 624.698,95.4106 624,92.5C 623.517,93.448 623.351,94.448 623.5,95.5C 622.5,95.5 621.5,95.5 620.5,95.5C 620.642,92.383 621.976,89.883 624.5,88C 623.241,87.0766 621.908,86.2432 620.5,85.5C 622.098,85.3903 623.765,85.057 625.5,84.5C 626.463,84.9698 626.463,85.6365 625.5,86.5 Z"/></g>
<g><path style="opacity:1" fill="#dfc8a7" d="M 421.5,89.5 C 422.659,91.2503 424.326,92.2503 426.5,92.5C 426.5,95.1667 426.5,97.8333 426.5,100.5C 425.835,98.3021 425.168,95.9688 424.5,93.5C 423.571,92.4502 422.905,92.4502 422.5,93.5C 421.566,92.4324 421.232,91.099 421.5,89.5 Z"/></g>
<g><path style="opacity:1" fill="#e8dac5" d="M 472.5,93.5 C 471.833,93.5 471.167,93.5 470.5,93.5C 467.208,92.5224 467.041,91.8557 470,91.5C 471.376,91.6842 472.209,92.3509 472.5,93.5 Z"/></g>
<g><path style="opacity:1" fill="#e3d0b5" d="M 482.5,92.5 C 483.919,91.5489 485.585,91.2155 487.5,91.5C 488.552,91.3505 489.552,91.5172 490.5,92C 487.794,93.2298 485.127,93.3964 482.5,92.5 Z"/></g>
<g><path style="opacity:1" fill="#e4d2b7" d="M 754.5,90.5 C 754.833,90.5 755.167,90.5 755.5,90.5C 756.686,91.7054 756.686,93.0387 755.5,94.5C 754.527,94.0133 753.527,93.5133 752.5,93C 753.756,92.5831 754.423,91.7498 754.5,90.5 Z"/></g>
<g><path style="opacity:1" fill="#f1eadf" d="M 611.5,93.5 C 613.377,92.0716 614.711,92.5716 615.5,95C 615.167,95.5 614.833,96 614.5,96.5C 613.712,95.2299 612.712,94.2299 611.5,93.5 Z"/></g>
<g><path style="opacity:1" fill="#d7b990" d="M 470.5,93.5 C 471.167,93.5 471.833,93.5 472.5,93.5C 472.737,94.791 472.404,95.791 471.5,96.5C 470.89,95.609 470.557,94.609 470.5,93.5 Z"/></g>
<g><path style="opacity:1" fill="#ddc4a2" d="M 101.5,96.5 C 102.077,95.2267 102.743,95.2267 103.5,96.5C 103.03,97.463 102.363,97.463 101.5,96.5 Z"/></g>
<g><path style="opacity:1" fill="#ddc4a2" d="M 311.5,96.5 C 312.077,95.2267 312.743,95.2267 313.5,96.5C 313.03,97.463 312.363,97.463 311.5,96.5 Z"/></g>
<g><path style="opacity:1" fill="#e5d3ba" d="M 382.5,87.5 C 381.454,91.0838 380.621,94.7504 380,98.5C 379.722,97.5842 379.222,96.9175 378.5,96.5C 379.535,94.795 379.535,93.1284 378.5,91.5C 379.325,90.6143 380.325,90.281 381.5,90.5C 381.263,89.209 381.596,88.209 382.5,87.5 Z"/></g>
<g><path style="opacity:1" fill="#d6b78d" d="M 635.5,94.5 C 636.776,95.3864 636.776,96.3864 635.5,97.5C 634.438,96.5754 634.438,95.5754 635.5,94.5 Z"/></g>
<g><path style="opacity:1" fill="#ddc5a4" d="M 661.5,95.5 C 662.919,94.5489 664.585,94.2155 666.5,94.5C 666.762,95.9778 666.429,97.3112 665.5,98.5C 664.431,97.0905 663.097,96.0905 661.5,95.5 Z"/></g>
<g><path style="opacity:1" fill="#ddc5a3" d="M 738.5,96.5 C 739.077,95.2267 739.743,95.2267 740.5,96.5C 740.03,97.463 739.363,97.463 738.5,96.5 Z"/></g>
<g><path style="opacity:1" fill="#dec6a5" d="M 733.5,97.5 C 733.179,99.0481 732.179,99.7148 730.5,99.5C 725.347,93.6612 726.347,92.9946 733.5,97.5 Z"/></g>
<g><path style="opacity:1" fill="#f2ede3" d="M 705.5,96.5 C 709.929,96.4567 710.929,97.9567 708.5,101C 709.624,101.249 710.624,101.749 711.5,102.5C 710.032,104.333 708.365,104.666 706.5,103.5C 706.833,102.833 707.167,102.167 707.5,101.5C 705.995,100.158 705.328,98.4918 705.5,96.5 Z"/></g>
<g><path style="opacity:1" fill="#e8d8c2" d="M 573.5,101.5 C 573.371,103.216 573.038,104.883 572.5,106.5C 571.861,105.903 571.528,105.07 571.5,104C 571.684,102.624 572.351,101.791 573.5,101.5 Z"/></g>
<g><path style="opacity:1" fill="#e8d9c4" d="M 625.5,102.5 C 631.313,102.344 631.646,103.011 626.5,104.5C 625.702,104.043 625.369,103.376 625.5,102.5 Z"/></g>
<g><path style="opacity:1" fill="#e0caac" d="M 666.5,103.5 C 663.755,106.102 661.089,106.102 658.5,103.5C 660.044,103.297 661.378,102.63 662.5,101.5C 664.707,101.891 666.04,102.558 666.5,103.5 Z"/></g>
<g><path style="opacity:1" fill="#dabe97" d="M 334.5,111.5 C 333.292,110.766 331.959,110.433 330.5,110.5C 328.343,107.017 325.676,106.683 322.5,109.5C 317.443,106.771 318.109,105.104 324.5,104.5C 325.167,105.167 325.833,105.833 326.5,106.5C 328.933,105.27 331.433,104.27 334,103.5C 335.636,106.227 335.802,108.893 334.5,111.5 Z"/></g>
<g><path style="opacity:1" fill="#e4d1b7" d="M 632.5,100.5 C 632.5,107.167 632.5,113.833 632.5,120.5C 634.308,120.491 635.975,120.991 637.5,122C 635.888,122.72 634.388,122.554 633,121.5C 632.517,122.448 632.351,123.448 632.5,124.5C 632.13,116.577 631.13,108.744 629.5,101C 630.448,100.517 631.448,100.351 632.5,100.5 Z"/></g>
<g><path style="opacity:1" fill="#e0cbad" d="M 233.5,96.5 C 233.331,101.181 232.998,105.848 232.5,110.5C 231.738,106.47 231.405,102.47 231.5,98.5C 231.5,97.1667 232.167,96.5 233.5,96.5 Z"/></g>
<g><path style="opacity:1" fill="#e3d0b5" d="M 435.5,101.5 C 435.833,101.5 436.167,101.5 436.5,101.5C 436.611,102.117 436.944,102.617 437.5,103C 435.068,103.743 433.401,105.243 432.5,107.5C 432.167,107.5 431.833,107.5 431.5,107.5C 432.301,105.958 432.634,104.292 432.5,102.5C 433.791,102.737 434.791,102.404 435.5,101.5 Z"/></g>
<g><path style="opacity:1" fill="#dbc19d" d="M 668.5,103.5 C 669.675,103.281 670.675,103.614 671.5,104.5C 669.948,105.798 668.948,105.465 668.5,103.5 Z"/></g>
<g><path style="opacity:1" fill="#d9bd96" d="M 752.5,106.5 C 751.288,107.23 750.288,108.23 749.5,109.5C 744.443,106.771 745.109,105.104 751.5,104.5C 752.298,104.957 752.631,105.624 752.5,106.5 Z"/></g>
<g><path style="opacity:1" fill="#d9bd96" d="M 114.5,104.5 C 114.443,105.609 114.11,106.609 113.5,107.5C 113.631,108.376 113.298,109.043 112.5,109.5C 107.483,106.735 108.15,105.068 114.5,104.5 Z"/></g>
<g><path style="opacity:1" fill="#e4d3b9" d="M 114.5,104.5 C 115.222,105.551 116.222,106.218 117.5,106.5C 118.492,106.328 119.158,106.662 119.5,107.5C 117.5,107.5 115.5,107.5 113.5,107.5C 114.11,106.609 114.443,105.609 114.5,104.5 Z"/></g>
<g><path style="opacity:1" fill="#e9dbc7" d="M 300.5,102.5 C 301.043,102.56 301.376,102.893 301.5,103.5C 300.088,105.76 299.088,108.093 298.5,110.5C 298.132,107.467 298.798,104.8 300.5,102.5 Z"/></g>
<g><path style="opacity:1" fill="#f3efe8" d="M 178.5,109.5 C 176.767,110.008 176.434,110.841 177.5,112C 176.552,112.483 175.552,112.649 174.5,112.5C 174.233,108.199 176.233,106.366 180.5,107C 179.619,107.708 178.953,108.542 178.5,109.5 Z"/></g>
<g><path style="opacity:1" fill="#f5f2ec" d="M 431.5,107.5 C 431.833,107.5 432.167,107.5 432.5,107.5C 432.5,107.833 432.5,108.167 432.5,108.5C 430.014,109.95 430.347,111.116 433.5,112C 430.633,112.801 427.966,112.634 425.5,111.5C 426.682,108.991 428.682,107.657 431.5,107.5 Z"/></g>
<g><path style="opacity:1" fill="#eee5d6" d="M 757.5,110.5 C 757.5,110.167 757.5,109.833 757.5,109.5C 761.887,110.105 765.554,108.771 768.5,105.5C 767.869,107.478 767.869,109.645 768.5,112C 767.095,113.269 765.429,113.769 763.5,113.5C 763.5,112.5 763.5,111.5 763.5,110.5C 761.5,110.5 759.5,110.5 757.5,110.5 Z"/></g>
<g><path style="opacity:1" fill="#e4d1b6" d="M 788.5,106.5 C 788.5,106.167 788.5,105.833 788.5,105.5C 789.222,105.082 789.722,104.416 790,103.5C 790.167,104.333 790.333,105.167 790.5,106C 789.96,108.985 789.294,109.152 788.5,106.5 Z"/></g>
<g><path style="opacity:1" fill="#d8bc94" d="M 337.5,107.5 C 340.481,110.122 340.148,110.789 336.5,109.5C 336.863,108.817 337.196,108.15 337.5,107.5 Z"/></g>
<g><path style="opacity:1" fill="#e0caac" d="M 670.5,110.5 C 669.508,110.672 668.842,110.338 668.5,109.5C 669.833,109.5 671.167,109.5 672.5,109.5C 671.887,104.386 671.887,99.7192 672.5,95.5C 673.464,101.342 674.464,107.176 675.5,113C 674.922,114.811 674.422,116.645 674,118.5C 673.503,115.854 673.336,113.187 673.5,110.5C 672.5,110.5 671.5,110.5 670.5,110.5 Z"/></g>
<g><path style="opacity:1" fill="#e2ceb2" d="M 82.5,111.5 C 81.0695,111.421 79.7362,111.754 78.5,112.5C 77.6143,111.675 77.281,110.675 77.5,109.5C 79.8342,108.159 81.5009,108.826 82.5,111.5 Z"/></g>
<g><path style="opacity:1" fill="#f5f3ee" d="M 156.5,130.5 C 156.232,132.099 156.566,133.432 157.5,134.5C 159.64,142.059 161.306,149.726 162.5,157.5C 158.563,157.793 154.73,157.46 151,156.5C 148.522,147.922 146.356,139.256 144.5,130.5C 142.052,129.527 139.385,129.194 136.5,129.5C 136.052,138.689 136.052,148.022 136.5,157.5C 132.833,157.5 129.167,157.5 125.5,157.5C 125.5,153.167 125.5,148.833 125.5,144.5C 126.222,144.082 126.722,143.416 127,142.5C 128.049,144.107 129.549,144.773 131.5,144.5C 131.646,142.058 130.813,141.391 129,142.5C 127.641,141.635 126.474,140.635 125.5,139.5C 125.334,134.156 125.501,128.823 126,123.5C 126.383,122.944 126.883,122.611 127.5,122.5C 128.151,123.091 128.818,123.757 129.5,124.5C 130.5,123.167 131.5,123.167 132.5,124.5C 135.028,123.483 135.028,122.316 132.5,121C 134.713,120.374 136.88,120.541 139,121.5C 140.03,121.164 140.53,120.497 140.5,119.5C 141.077,118.227 141.743,118.227 142.5,119.5C 141.814,121.064 141.981,122.731 143,124.5C 144.41,123.213 145.91,122.046 147.5,121C 146.451,120.508 145.451,120.674 144.5,121.5C 144.264,120.753 143.93,119.92 143.5,119C 145.193,118.153 146.86,117.32 148.5,116.5C 149.166,120.021 149.833,123.687 150.5,127.5C 150.264,123.252 150.598,118.919 151.5,114.5C 152.239,114.631 152.906,114.464 153.5,114C 152.376,113.751 151.376,113.251 150.5,112.5C 151.853,111.315 153.02,109.981 154,108.5C 156.069,109.264 158.236,109.764 160.5,110C 161.022,110.561 161.355,111.228 161.5,112C 160.672,116.279 158.838,120.446 156,124.5C 155.51,126.545 155.677,128.545 156.5,130.5 Z"/></g>
<g><path style="opacity:1" fill="#d8bc94" d="M 245.5,107.5 C 248.481,110.122 248.148,110.789 244.5,109.5C 244.863,108.817 245.196,108.15 245.5,107.5 Z"/></g>
<g><path style="opacity:1" fill="#e2ceb2" d="M 292.5,111.5 C 291.07,111.421 289.736,111.754 288.5,112.5C 287.614,111.675 287.281,110.675 287.5,109.5C 289.834,108.159 291.501,108.826 292.5,111.5 Z"/></g>
<g><path style="opacity:1" fill="#f1eade" d="M 628.5,111.5 C 625.272,112.414 621.939,112.747 618.5,112.5C 620.018,110.228 622.185,108.895 625,108.5C 626.171,109.893 627.671,110.727 629.5,111C 629.272,111.399 628.938,111.565 628.5,111.5 Z"/></g>
<g><path style="opacity:1" fill="#e7d7c0" d="M 178.5,109.5 C 179.171,110.847 179.171,112.014 178.5,113C 176.934,113.765 175.601,113.598 174.5,112.5C 175.552,112.649 176.552,112.483 177.5,112C 176.434,110.841 176.767,110.008 178.5,109.5 Z"/></g>
<g><path style="opacity:1" fill="#e9dbc6" d="M 249.5,108.5 C 251.346,108.222 252.68,108.889 253.5,110.5C 252.167,110.833 250.833,111.167 249.5,111.5C 248.438,110.575 248.438,109.575 249.5,108.5 Z"/></g>
<g><path style="opacity:1" fill="#e4d2b8" d="M 715.5,109.5 C 717.38,109.229 718.713,109.896 719.5,111.5C 718.305,111.678 717.138,112.011 716,112.5C 714.317,111.824 714.15,110.824 715.5,109.5 Z"/></g>
<g><path style="opacity:1" fill="#f2ede4" d="M 392.5,110.5 C 394.973,110.947 395.14,111.947 393,113.5C 392.517,112.552 392.351,111.552 392.5,110.5 Z"/></g>
<g><path style="opacity:1" fill="#f4f1ea" d="M 436.5,111.5 C 437.376,111.369 438.043,111.702 438.5,112.5C 441.724,117.67 440.391,119.67 434.5,118.5C 433.778,119.551 432.778,120.218 431.5,120.5C 431.5,120.167 431.5,119.833 431.5,119.5C 432.116,117.583 433.45,116.416 435.5,116C 433.852,114.323 432.185,114.156 430.5,115.5C 429.209,115.737 428.209,115.404 427.5,114.5C 429.727,113.953 432.394,113.453 435.5,113C 436.056,112.617 436.389,112.117 436.5,111.5 Z"/></g>
<g><path style="opacity:1" fill="#eaddcb" d="M 465.5,109.5 C 467.199,109.34 468.866,109.506 470.5,110C 468.097,111.853 465.764,113.686 463.5,115.5C 464.167,113.5 464.833,111.5 465.5,109.5 Z"/></g>
<g><path style="opacity:1" fill="#f2ece3" d="M 422.5,114.5 C 423.167,114.5 423.5,114.833 423.5,115.5C 419.33,114.993 416.33,116.659 414.5,120.5C 414.167,120.167 413.833,119.833 413.5,119.5C 415.086,117.827 415.753,115.827 415.5,113.5C 418.278,113.978 420.278,112.978 421.5,110.5C 421.76,111.905 422.093,113.238 422.5,114.5 Z"/></g>
<g><path style="opacity:1" fill="#e5d4bb" d="M 432.5,108.5 C 433.59,109.857 434.924,110.857 436.5,111.5C 436.389,112.117 436.056,112.617 435.5,113C 432.394,113.453 429.727,113.953 427.5,114.5C 426.041,114.433 424.708,114.766 423.5,115.5C 423.5,114.833 423.167,114.5 422.5,114.5C 423.167,113.167 424.167,112.167 425.5,111.5C 427.966,112.634 430.633,112.801 433.5,112C 430.347,111.116 430.014,109.95 432.5,108.5 Z"/></g>
<g><path style="opacity:1" fill="#e7d7c0" d="M 585.5,115.5 C 584.596,114.791 584.263,113.791 584.5,112.5C 585.59,110.237 586.923,110.07 588.5,112C 586.937,112.759 585.937,113.926 585.5,115.5 Z"/></g>
<g><path style="opacity:1" fill="#e1ccaf" d="M 615.5,111.5 C 616.391,112.11 617.391,112.443 618.5,112.5C 621.939,112.747 625.272,112.414 628.5,111.5C 631.049,112.831 630.716,113.831 627.5,114.5C 625.167,113.167 622.833,113.167 620.5,114.5C 619.041,114.433 617.708,114.766 616.5,115.5C 614.507,114.528 614.174,113.195 615.5,111.5 Z"/></g>
<g><path style="opacity:1" fill="#e5d4bb" d="M 209.5,111.5 C 210.434,112.568 210.768,113.901 210.5,115.5C 209.5,115.5 208.5,115.5 207.5,115.5C 206.833,115.5 206.167,115.5 205.5,115.5C 206.568,114.566 207.901,114.232 209.5,114.5C 209.5,113.5 209.5,112.5 209.5,111.5 Z"/></g>
<g><path style="opacity:1" fill="#dec5a4" d="M 318.5,113.5 C 320.377,114.659 320.877,116.326 320,118.5C 318.731,117.095 318.231,115.429 318.5,113.5 Z"/></g>
<g><path style="opacity:1" fill="#e7d7c1" d="M 360.5,114.5 C 361.833,114.5 363.167,114.5 364.5,114.5C 364.715,116.179 364.048,117.179 362.5,117.5C 361.449,116.778 360.782,115.778 360.5,114.5 Z"/></g>
<g><path style="opacity:1" fill="#f1ebe1" d="M 615.5,111.5 C 614.174,113.195 614.507,114.528 616.5,115.5C 613.385,115.394 610.719,116.394 608.5,118.5C 608.5,116.833 608.5,115.167 608.5,113.5C 611.278,113.978 613.278,112.978 614.5,110.5C 615.107,110.624 615.44,110.957 615.5,111.5 Z"/></g>
<g><path style="opacity:1" fill="#f4f0e9" d="M 627.5,114.5 C 624.959,115.103 622.626,115.103 620.5,114.5C 622.833,113.167 625.167,113.167 627.5,114.5 Z"/></g>
<g><path style="opacity:1" fill="#dcc3a0" d="M 108.5,113.5 C 110.476,114.427 110.809,115.76 109.5,117.5C 108.571,116.311 108.238,114.978 108.5,113.5 Z"/></g>
<g><path style="opacity:1" fill="#e1cbad" d="M 181.5,114.5 C 181.611,115.117 181.944,115.617 182.5,116C 180.45,116.416 179.116,117.583 178.5,119.5C 177.568,117.054 178.568,115.387 181.5,114.5 Z"/></g>
<g><path style="opacity:1" fill="#d8bb92" d="M 205.5,115.5 C 206.167,115.5 206.833,115.5 207.5,115.5C 206.316,117.41 204.816,119.076 203,120.5C 202.283,119.956 201.783,119.289 201.5,118.5C 201.11,113.578 202.277,113.244 205,117.5C 205.464,116.906 205.631,116.239 205.5,115.5 Z"/></g>
<g><path style="opacity:1" fill="#f1eae0" d="M 207.5,115.5 C 208.5,115.5 209.5,115.5 210.5,115.5C 210.208,116.874 209.875,118.207 209.5,119.5C 208.711,119.783 208.044,120.283 207.5,121C 208.641,121.741 208.641,122.575 207.5,123.5C 206.051,124.172 204.718,124.839 203.5,125.5C 200.457,124.795 198.79,122.795 198.5,119.5C 199.609,119.443 200.609,119.11 201.5,118.5C 201.783,119.289 202.283,119.956 203,120.5C 204.816,119.076 206.316,117.41 207.5,115.5 Z"/></g>
<g><path style="opacity:1" fill="#d8bb93" d="M 246.5,117.5 C 249.33,115.965 250.663,116.965 250.5,120.5C 249.5,120.5 248.5,120.5 247.5,120.5C 247.737,119.209 247.404,118.209 246.5,117.5 Z"/></g>
<g><path style="opacity:1" fill="#d7b990" d="M 339.5,116.5 C 341.912,116.694 342.912,118.027 342.5,120.5C 341.5,120.5 340.5,120.5 339.5,120.5C 339.5,119.167 339.5,117.833 339.5,116.5 Z"/></g>
<g><path style="opacity:1" fill="#e3d0b4" d="M 430.5,115.5 C 432.185,114.156 433.852,114.323 435.5,116C 433.45,116.416 432.116,117.583 431.5,119.5C 431.167,118.167 430.833,116.833 430.5,115.5 Z"/></g>
<g><path style="opacity:1" fill="#e1cbae" d="M 770.5,114.5 C 770.611,115.117 770.944,115.617 771.5,116C 769.45,116.416 768.116,117.583 767.5,119.5C 766.568,117.054 767.568,115.387 770.5,114.5 Z"/></g>
<g><path style="opacity:1" fill="#f1ebe0" d="M 135.5,112.5 C 136.468,114.607 136.802,116.941 136.5,119.5C 133.568,118.683 130.902,118.683 128.5,119.5C 130.073,117.794 132.073,116.627 134.5,116C 133.713,114.687 134.046,113.52 135.5,112.5 Z"/></g>
<g><path style="opacity:1" fill="#e5d4bc" d="M 151.5,114.5 C 150.598,118.919 150.264,123.252 150.5,127.5C 149.833,123.687 149.166,120.021 148.5,116.5C 148.821,114.952 149.821,114.285 151.5,114.5 Z"/></g>
<g><path style="opacity:1" fill="#e2d0b4" d="M 585.5,116.5 C 585.527,118.199 586.194,119.533 587.5,120.5C 586.566,121.568 586.232,122.901 586.5,124.5C 585.833,123.167 585.167,121.833 584.5,120.5C 584.232,118.901 584.566,117.568 585.5,116.5 Z"/></g>
<g><path style="opacity:1" fill="#e3cfb4" d="M 750.5,117.5 C 750.5,118.5 750.5,119.5 750.5,120.5C 750.009,119.107 748.509,118.107 746,117.5C 745.333,116.167 745.333,114.833 746,113.5C 746.876,115.635 748.376,116.969 750.5,117.5 Z"/></g>
<g><path style="opacity:1" fill="#e7d7c0" d="M 335.5,112.5 C 336.38,114.137 337.046,115.97 337.5,118C 336.678,120.434 336.344,122.934 336.5,125.5C 335.515,121.366 335.182,117.032 335.5,112.5 Z"/></g>
<g><path style="opacity:1" fill="#f5f2ec" d="M 398.5,114.5 C 404.441,118.939 409.108,124.439 412.5,131C 412.355,131.772 412.022,132.439 411.5,133C 412.416,133.374 413.25,133.874 414,134.5C 416.104,147.309 410.937,155.309 398.5,158.5C 397.833,158.167 397.167,157.833 396.5,157.5C 395.513,154.232 395.18,150.898 395.5,147.5C 400.763,147.52 403.43,144.853 403.5,139.5C 402.266,135.371 400.766,131.371 399,127.5C 398.064,124.208 398.564,121.208 400.5,118.5C 399.37,117.378 398.703,116.044 398.5,114.5 Z"/></g>
<g><path style="opacity:1" fill="#dec5a4" d="M 473.5,117.5 C 475.346,117.222 476.68,117.889 477.5,119.5C 475.167,120.941 473.834,120.275 473.5,117.5 Z"/></g>
<g><path style="opacity:1" fill="#f5f3ed" d="M 593.5,157.5 C 592.167,157.5 590.833,157.5 589.5,157.5C 589.737,156.209 589.404,155.209 588.5,154.5C 588.338,152.473 588.505,150.473 589,148.5C 595.218,146.896 597.551,142.896 596,136.5C 595.634,134.548 594.801,132.882 593.5,131.5C 593.369,130.761 593.536,130.094 594,129.5C 594.654,130.696 595.154,130.696 595.5,129.5C 592.923,127.08 591.923,124.08 592.5,120.5C 593.732,117.22 595.399,116.886 597.5,119.5C 601.269,122.934 604.269,126.934 606.5,131.5C 603.869,133.005 604.203,133.671 607.5,133.5C 609.267,142.706 606.6,150.206 599.5,156C 597.655,157.128 595.655,157.628 593.5,157.5 Z"/></g>
<g><path style="opacity:1" fill="#eadcc8" d="M 473.5,115.5 C 472.081,116.451 470.415,116.784 468.5,116.5C 468.768,118.099 468.434,119.432 467.5,120.5C 467,115.442 469,113.776 473.5,115.5 Z"/></g>
<g><path style="opacity:1" fill="#e4d3b9" d="M 498.5,117.5 C 498.5,118.5 498.5,119.5 498.5,120.5C 497.292,121.234 495.959,121.567 494.5,121.5C 494.5,120.5 494.5,119.5 494.5,118.5C 495.708,117.766 497.041,117.433 498.5,117.5 Z"/></g>
<g><path style="opacity:1" fill="#eadecb" d="M 608.5,118.5 C 608.361,120.337 607.694,120.67 606.5,119.5C 606.957,118.702 607.624,118.369 608.5,118.5 Z"/></g>
<g><path style="opacity:1" fill="#f1ebe1" d="M 825.5,118.5 C 826.289,118.783 826.956,119.283 827.5,120C 826.184,120.528 825.517,120.028 825.5,118.5 Z"/></g>
<g><path style="opacity:1" fill="#e8d9c4" d="M 363.5,118.5 C 366.78,119.732 367.114,121.399 364.5,123.5C 363.548,121.955 363.215,120.288 363.5,118.5 Z"/></g>
<g><path style="opacity:1" fill="#ebdecb" d="M 434.5,118.5 C 435.1,119.9 436.1,120.9 437.5,121.5C 436.603,122.598 435.77,122.598 435,121.5C 434.302,122.691 433.469,123.691 432.5,124.5C 429.474,123.241 429.14,121.908 431.5,120.5C 432.778,120.218 433.778,119.551 434.5,118.5 Z"/></g>
<g><path style="opacity:1" fill="#f1ebe0" d="M 587.5,120.5 C 589.721,122.33 589.888,124.33 588,126.5C 587.283,125.956 586.783,125.289 586.5,124.5C 586.232,122.901 586.566,121.568 587.5,120.5 Z"/></g>
<g><path style="opacity:1" fill="#e3cfb3" d="M 828.5,119.5 C 831.059,119.39 833.392,120.056 835.5,121.5C 833.563,122.158 831.73,122.491 830,122.5C 828.961,121.756 828.461,120.756 828.5,119.5 Z"/></g>
<g><path style="opacity:1" fill="#ddc5a3" d="M 140.5,119.5 C 140.53,120.497 140.03,121.164 139,121.5C 136.88,120.541 134.713,120.374 132.5,121C 135.028,122.316 135.028,123.483 132.5,124.5C 131.5,123.167 130.5,123.167 129.5,124.5C 128.818,123.757 128.151,123.091 127.5,122.5C 124.951,121.169 125.284,120.169 128.5,119.5C 130.902,118.683 133.568,118.683 136.5,119.5C 136.802,116.941 136.468,114.607 135.5,112.5C 135.389,111.883 135.056,111.383 134.5,111C 135.249,109.266 135.749,107.433 136,105.5C 136.856,110.556 137.856,115.556 139,120.5C 139.383,119.944 139.883,119.611 140.5,119.5 Z"/></g>
<g><path style="opacity:1" fill="#f4f1ea" d="M 178.5,119.5 C 179.116,117.583 180.45,116.416 182.5,116C 181.944,115.617 181.611,115.117 181.5,114.5C 182.254,112.554 183.588,111.721 185.5,112C 187.016,113.897 187.683,116.064 187.5,118.5C 185.223,119.075 183.223,119.409 181.5,119.5C 182.628,120.262 183.795,120.929 185,121.5C 185.706,125.364 186.539,129.197 187.5,133C 186.932,134.872 186.265,136.705 185.5,138.5C 186.035,140.271 186.869,140.604 188,139.5C 188.852,142.033 188.186,144.033 186,145.5C 185.501,149.821 185.334,154.154 185.5,158.5C 181.563,158.793 177.73,158.46 174,157.5C 173.5,152.988 173.667,148.488 174.5,144C 174.629,142.019 175.296,140.353 176.5,139C 175.584,138.626 174.75,138.126 174,137.5C 173.797,133.579 173.297,129.745 172.5,126C 173.634,124.984 173.301,124.317 171.5,124C 173.18,123.966 174.68,123.799 176,123.5C 181.185,127.479 181.685,126.812 177.5,121.5C 177.863,120.817 178.196,120.15 178.5,119.5 Z"/></g>
<g><path style="opacity:1" fill="#e9dbc7" d="M 229.5,119.5 C 229.795,121.735 229.461,123.735 228.5,125.5C 228.762,124.022 228.429,122.689 227.5,121.5C 226.549,122.326 225.549,122.492 224.5,122C 225.91,120.628 227.577,119.795 229.5,119.5 Z"/></g>
<g><path style="opacity:1" fill="#f5f2ec" d="M 437.5,121.5 C 438.673,125.16 439.673,128.993 440.5,133C 439.932,134.872 439.265,136.705 438.5,138.5C 439.465,139.914 440.465,140.747 441.5,141C 440.922,142.811 440.422,144.645 440,146.5C 439.667,146.167 439.333,145.833 439,145.5C 438.501,149.821 438.334,154.154 438.5,158.5C 434.563,158.793 430.73,158.46 427,157.5C 426.434,152.817 426.601,148.15 427.5,143.5C 427.649,141.68 428.316,140.18 429.5,139C 428.584,138.626 427.75,138.126 427,137.5C 426.333,133.167 426.333,128.833 427,124.5C 428.356,125.38 429.856,125.714 431.5,125.5C 431.5,126.5 431.5,127.5 431.5,128.5C 435.013,128.131 435.347,126.798 432.5,124.5C 433.469,123.691 434.302,122.691 435,121.5C 435.77,122.598 436.603,122.598 437.5,121.5 Z"/></g>
<g><path style="opacity:1" fill="#f4f1eb" d="M 767.5,119.5 C 768.116,117.583 769.45,116.416 771.5,116C 770.944,115.617 770.611,115.117 770.5,114.5C 771.254,112.554 772.588,111.721 774.5,112C 776.016,113.897 776.683,116.064 776.5,118.5C 774.223,119.075 772.223,119.409 770.5,119.5C 771.628,120.262 772.795,120.929 774,121.5C 774.706,125.364 775.539,129.197 776.5,133C 775.932,134.872 775.265,136.705 774.5,138.5C 775.035,140.271 775.869,140.604 777,139.5C 777.852,142.033 777.186,144.033 775,145.5C 774.501,149.821 774.334,154.154 774.5,158.5C 770.563,158.793 766.73,158.46 763,157.5C 762.5,152.988 762.667,148.488 763.5,144C 763.629,142.019 764.296,140.353 765.5,139C 764.584,138.626 763.75,138.126 763,137.5C 762.333,133.167 762.333,128.833 763,124.5C 764.356,125.38 765.856,125.714 767.5,125.5C 767.5,126.5 767.5,127.5 767.5,128.5C 768.675,128.719 769.675,128.386 770.5,127.5C 769.559,125.228 768.226,123.228 766.5,121.5C 766.863,120.817 767.196,120.15 767.5,119.5 Z"/></g>
<g><path style="opacity:1" fill="#e8d9c4" d="M 243.5,115.5 C 244.695,115.866 245.361,116.699 245.5,118C 244.913,122.648 244.246,127.148 243.5,131.5C 243.5,126.167 243.5,120.833 243.5,115.5 Z"/></g>
<g><path style="opacity:1" fill="#efe7db" d="M 271.5,118.5 C 272.234,119.878 272.901,121.378 273.5,123C 273.167,123.167 272.833,123.333 272.5,123.5C 271.548,121.955 271.215,120.288 271.5,118.5 Z"/></g>
<g><path style="opacity:1" fill="#f4f1e9" d="M 392.5,119.5 C 395.254,121.053 396.087,123.386 395,126.5C 394.167,125.667 393.333,124.833 392.5,124C 393.413,122.586 393.413,121.086 392.5,119.5 Z"/></g>
<g><path style="opacity:1" fill="#e3cfb4" d="M 209.5,119.5 C 209.065,121.703 209.065,123.703 209.5,125.5C 207.379,125.325 205.379,125.659 203.5,126.5C 203.5,126.167 203.5,125.833 203.5,125.5C 204.718,124.839 206.051,124.172 207.5,123.5C 208.641,122.575 208.641,121.741 207.5,121C 208.044,120.283 208.711,119.783 209.5,119.5 Z"/></g>
<g><path style="opacity:1" fill="#e8d9c4" d="M 88.5,127.5 C 88.5,126.833 88.1667,126.5 87.5,126.5C 86.0243,124.77 86.3576,123.437 88.5,122.5C 90.498,124.568 90.498,126.234 88.5,127.5 Z"/></g>
<g><path style="opacity:1" fill="#e8dac4" d="M 298.5,127.5 C 298.5,126.833 298.167,126.5 297.5,126.5C 296.024,124.77 296.358,123.437 298.5,122.5C 300.498,124.568 300.498,126.234 298.5,127.5 Z"/></g>
<g><path style="opacity:1" fill="#e0caac" d="M 135.5,124.5 C 138.962,126.193 138.962,127.193 135.5,127.5C 135.5,126.5 135.5,125.5 135.5,124.5 Z"/></g>
<g><path style="opacity:1" fill="#e4d3ba" d="M 210.5,125.5 C 212.048,125.821 212.715,126.821 212.5,128.5C 211.691,130.292 211.191,132.292 211,134.5C 210.502,131.518 210.335,128.518 210.5,125.5 Z"/></g>
<g><path style="opacity:1" fill="#e7d7c0" d="M 592.5,120.5 C 591.923,124.08 592.923,127.08 595.5,129.5C 595.154,130.696 594.654,130.696 594,129.5C 593.536,130.094 593.369,130.761 593.5,131.5C 591.559,127.931 591.226,124.265 592.5,120.5 Z"/></g>
<g><path style="opacity:1" fill="#e5d5bd" d="M 639.5,122.5 C 642.837,124.452 644.171,127.452 643.5,131.5C 642.691,129.708 642.191,127.708 642,125.5C 640.525,124.494 638.692,124.494 636.5,125.5C 636.5,125.167 636.5,124.833 636.5,124.5C 637.5,123.833 638.5,123.167 639.5,122.5 Z"/></g>
<g><path style="opacity:1" fill="#eee4d5" d="M 726.5,131.5 C 725.698,130.048 725.198,128.382 725,126.5C 724.184,127.823 723.017,128.489 721.5,128.5C 719.368,128.554 718.035,129.554 717.5,131.5C 716.072,129.926 715.739,128.259 716.5,126.5C 718.635,127.966 720.635,127.8 722.5,126C 720.842,125.275 720.342,124.108 721,122.5C 722.699,121.594 724.533,121.261 726.5,121.5C 726.741,124.999 725.908,125.332 724,122.5C 723.729,124.807 724.895,125.974 727.5,126C 726.594,127.699 726.261,129.533 726.5,131.5 Z"/></g>
<g><path style="opacity:1" fill="#f6f4ee" d="M 643.5,131.5 C 643.5,140.5 643.5,149.5 643.5,158.5C 639.833,158.5 636.167,158.5 632.5,158.5C 632.5,155.5 632.5,152.5 632.5,149.5C 634.124,149.36 635.29,150.027 636,151.5C 637.615,149.989 637.615,148.656 636,147.5C 634.989,148.337 633.822,148.67 632.5,148.5C 632.334,141.492 632.5,134.492 633,127.5C 635.149,128.84 636.316,128.173 636.5,125.5C 638.692,124.494 640.525,124.494 642,125.5C 642.191,127.708 642.691,129.708 643.5,131.5 Z"/></g>
<g><path style="opacity:1" fill="#d8bb94" d="M 637.5,128.5 C 639.379,128.393 639.712,128.893 638.5,130C 637.167,130.667 635.833,130.667 634.5,130C 635.737,129.768 636.737,129.268 637.5,128.5 Z"/></g>
<g><path style="opacity:1" fill="#d8bc94" d="M 721.5,128.5 C 721.634,130.292 721.301,131.958 720.5,133.5C 720.167,133.5 719.833,133.5 719.5,133.5C 719.5,132.167 718.833,131.5 717.5,131.5C 718.035,129.554 719.368,128.554 721.5,128.5 Z"/></g>
<g><path style="opacity:1" fill="#e1cdb0" d="M 157.5,134.5 C 156.566,133.432 156.232,132.099 156.5,130.5C 158.137,129.782 159.803,129.616 161.5,130C 158.894,130.45 157.561,131.95 157.5,134.5 Z"/></g>
<g><path style="opacity:1" fill="#ddc4a2" d="M 682.5,104.5 C 681.432,105.434 680.099,105.768 678.5,105.5C 678.807,115.582 678.474,125.582 677.5,135.5C 675.141,134.611 674.975,133.278 677,131.5C 677.5,122.506 677.666,113.506 677.5,104.5C 679.167,104.5 680.833,104.5 682.5,104.5 Z"/></g>
<g><path style="opacity:1" fill="#e8dac4" d="M 719.5,133.5 C 719.833,133.5 720.167,133.5 720.5,133.5C 721.552,133.351 722.552,133.517 723.5,134C 723.167,134.333 722.833,134.667 722.5,135C 720.925,134.621 719.425,134.788 718,135.5C 717.472,134.184 717.972,133.517 719.5,133.5 Z"/></g>
<g><path style="opacity:1" fill="#e6d6be" d="M 82.5,133.5 C 82.8333,133.5 83.1667,133.5 83.5,133.5C 84.675,133.281 85.675,133.614 86.5,134.5C 84.6467,134.92 82.8133,135.253 81,135.5C 80.4719,134.184 80.9719,133.517 82.5,133.5 Z"/></g>
<g><path style="opacity:1" fill="#e0caac" d="M 293.5,133.5 C 294.675,133.281 295.675,133.614 296.5,134.5C 294.948,135.798 293.948,135.465 293.5,133.5 Z"/></g>
<g><path style="opacity:1" fill="#f5f3ed" d="M 380.5,136.5 C 383.448,136.223 386.281,136.556 389,137.5C 389.14,140.043 389.806,142.377 391,144.5C 391.499,148.152 391.665,151.818 391.5,155.5C 387.729,156.226 385.063,154.893 383.5,151.5C 383.709,150.914 384.043,150.414 384.5,150C 383.322,149.033 381.989,148.533 380.5,148.5C 379.401,145.704 378.401,142.871 377.5,140C 378.071,138.401 379.071,137.234 380.5,136.5 Z"/></g>
<g><path style="opacity:1" fill="#f5f3ee" d="M 573.5,136.5 C 576.5,136.5 579.5,136.5 582.5,136.5C 584.004,142.7 584.67,149.033 584.5,155.5C 580.776,156.227 578.109,154.894 576.5,151.5C 576.709,150.914 577.043,150.414 577.5,150C 576.448,148.881 575.281,148.381 574,148.5C 571.04,144.487 570.873,140.487 573.5,136.5 Z"/></g>
<g><path style="opacity:1" fill="#ece0cf" d="M 125.5,139.5 C 126.474,140.635 127.641,141.635 129,142.5C 130.813,141.391 131.646,142.058 131.5,144.5C 129.549,144.773 128.049,144.107 127,142.5C 126.722,143.416 126.222,144.082 125.5,144.5C 125.5,142.833 125.5,141.167 125.5,139.5 Z"/></g>
<g><path style="opacity:1" fill="#eaddca" d="M 442.5,142.5 C 444.983,142.73 445.483,143.397 444,144.5C 442.97,144.164 442.47,143.497 442.5,142.5 Z"/></g>
<g><path style="opacity:1" fill="#e9dbc8" d="M 189.5,142.5 C 191.983,142.73 192.483,143.397 191,144.5C 189.97,144.164 189.47,143.497 189.5,142.5 Z"/></g>
<g><path style="opacity:1" fill="#e9dbc7" d="M 778.5,142.5 C 780.983,142.73 781.483,143.397 780,144.5C 778.97,144.164 778.47,143.497 778.5,142.5 Z"/></g>
<g><path style="opacity:1" fill="#f4f1ea" d="M 274.5,152.5 C 273.432,151.566 272.099,151.232 270.5,151.5C 270.5,153.5 270.5,155.5 270.5,157.5C 266.455,157.358 262.621,157.358 259,157.5C 258.501,153.514 258.334,149.514 258.5,145.5C 264.13,146.292 269.797,146.625 275.5,146.5C 275.795,148.735 275.461,150.735 274.5,152.5 Z"/></g>
<g><path style="opacity:1" fill="#f5f2eb" d="M 366.5,152.5 C 364.775,151.095 362.775,150.595 360.5,151C 362.25,152.754 362.917,154.921 362.5,157.5C 358.455,157.358 354.621,157.358 351,157.5C 350.501,153.514 350.334,149.514 350.5,145.5C 356.13,146.292 361.797,146.625 367.5,146.5C 367.795,148.735 367.461,150.735 366.5,152.5 Z"/></g>
<g><path style="opacity:1" fill="#e1ccae" d="M 144.5,130.5 C 142.167,130.5 139.833,130.5 137.5,130.5C 137.827,139.682 137.493,148.682 136.5,157.5C 136.052,148.022 136.052,138.689 136.5,129.5C 139.385,129.194 142.052,129.527 144.5,130.5 Z"/></g>
<g><path style="opacity:1" fill="#ddc6a4" d="M 674.5,146.5 C 675.713,147.497 675.546,148.497 674,149.5C 673.53,148.423 673.697,147.423 674.5,146.5 Z"/></g>
<g><path style="opacity:1" fill="#e7d7c0" d="M 632.5,149.5 C 632.5,149.167 632.5,148.833 632.5,148.5C 633.822,148.67 634.989,148.337 636,147.5C 637.615,148.656 637.615,149.989 636,151.5C 635.29,150.027 634.124,149.36 632.5,149.5 Z"/></g>
<g><path style="opacity:1" fill="#dbc09c" d="M 638.5,148.5 C 642.243,148.459 642.41,149.126 639,150.5C 638.536,149.906 638.369,149.239 638.5,148.5 Z"/></g>
<g><path style="opacity:1" fill="#e9dcc7" d="M 486.5,148.5 C 486.5,149.5 486.5,150.5 486.5,151.5C 485.5,151.5 484.5,151.5 483.5,151.5C 481.991,147.926 482.991,146.926 486.5,148.5 Z"/></g>
<g><path style="opacity:1" fill="#e9dbc7" d="M 78.5,145.5 C 77.5863,148.728 77.2529,152.061 77.5,155.5C 76.8401,154.036 76.5068,152.369 76.5,150.5C 76.5561,148.36 77.2227,146.694 78.5,145.5 Z"/></g>
<g><path style="opacity:1" fill="#f2ede4" d="M 274.5,152.5 C 275.301,154.042 275.634,155.708 275.5,157.5C 274.5,157.5 273.5,157.5 272.5,157.5C 272.579,156.07 272.246,154.736 271.5,153.5C 272.325,152.614 273.325,152.281 274.5,152.5 Z"/></g>
<g><path style="opacity:1" fill="#e9dcc8" d="M 288.5,145.5 C 287.586,148.728 287.253,152.061 287.5,155.5C 286.84,154.036 286.507,152.369 286.5,150.5C 286.556,148.36 287.223,146.694 288.5,145.5 Z"/></g>
<g><path style="opacity:1" fill="#f3efe7" d="M 366.5,152.5 C 367.301,154.042 367.634,155.708 367.5,157.5C 366.5,157.5 365.5,157.5 364.5,157.5C 364.714,155.856 364.38,154.356 363.5,153C 364.448,152.517 365.448,152.351 366.5,152.5 Z"/></g>
<g><path style="opacity:1" fill="#e6d6be" d="M 522.5,150.5 C 525.588,151.243 526.255,152.91 524.5,155.5C 523.463,154.07 522.796,152.403 522.5,150.5 Z"/></g>
<g><path style="opacity:1" fill="#ebe0cf" d="M 166.5,155.5 C 168.517,154.126 170.517,154.293 172.5,156C 170.455,156.49 168.455,156.323 166.5,155.5 Z"/></g>
<g><path style="opacity:1" fill="#ebe0cf" d="M 419.5,155.5 C 421.517,154.126 423.517,154.293 425.5,156C 423.455,156.49 421.455,156.323 419.5,155.5 Z"/></g>
<g><path style="opacity:1" fill="#e9dac4" d="M 678.5,157.5 C 677.508,157.672 676.842,157.338 676.5,156.5C 676.351,155.448 676.517,154.448 677,153.5C 679.563,153.494 682.063,153.994 684.5,155C 683.892,155.87 683.059,156.37 682,156.5C 680.333,154.993 679.166,155.327 678.5,157.5 Z"/></g>
<g><path style="opacity:1" fill="#ecdfce" d="M 755.5,155.5 C 757.517,154.126 759.517,154.293 761.5,156C 759.455,156.49 757.455,156.323 755.5,155.5 Z"/></g>
<g><path style="opacity:1" fill="#dfc7a6" d="M 807.5,154.5 C 808.376,154.369 809.043,154.702 809.5,155.5C 807.192,156.873 806.525,156.54 807.5,154.5 Z"/></g>
<g><path style="opacity:1" fill="#e0cbac" d="M 588.5,154.5 C 589.404,155.209 589.737,156.209 589.5,157.5C 590.833,157.5 592.167,157.5 593.5,157.5C 592.081,158.451 590.415,158.784 588.5,158.5C 588.5,157.167 588.5,155.833 588.5,154.5 Z"/></g>
<g><path style="opacity:1" fill="#f3efe8" d="M 288.5,203.5 C 290.966,202.366 293.633,202.199 296.5,203C 295.692,203.308 295.025,203.808 294.5,204.5C 296.333,208.167 298.167,211.833 300,215.5C 302.223,212.221 304.057,208.721 305.5,205C 305.095,204.055 304.428,203.388 303.5,203C 305.833,202.333 308.167,202.333 310.5,203C 303.736,209.71 300.736,217.877 301.5,227.5C 301.621,228.843 299.288,229.01 294.5,228C 295.766,227.691 296.933,227.191 298,226.5C 298.667,223.5 298.667,220.5 298,217.5C 295.667,213.167 293.333,208.833 291,204.5C 290.329,203.748 289.496,203.414 288.5,203.5 Z"/></g>
<g><path style="opacity:1" fill="#e4d3b9" d="M 391.5,202.5 C 393.5,201.167 395.5,201.167 397.5,202.5C 396.508,202.328 395.842,202.662 395.5,203.5C 394.5,203.5 393.5,203.5 392.5,203.5C 392.5,202.833 392.167,202.5 391.5,202.5 Z"/></g>
<g><path style="opacity:1" fill="#f5f2eb" d="M 395.5,203.5 C 395.842,202.662 396.508,202.328 397.5,202.5C 399.01,203.728 400.51,203.728 402,202.5C 403.154,209.66 402.321,210.493 399.5,205C 398.255,204.209 396.922,203.709 395.5,203.5 Z"/></g>
<g><path style="opacity:1" fill="#f3efe7" d="M 462.5,203.5 C 465.304,202.362 468.304,202.195 471.5,203C 470.572,203.388 469.905,204.055 469.5,205C 470.943,208.721 472.777,212.221 475,215.5C 476.833,211.833 478.667,208.167 480.5,204.5C 479.975,203.808 479.308,203.308 478.5,203C 480.833,202.333 483.167,202.333 485.5,203C 484.376,203.249 483.376,203.749 482.5,204.5C 480.333,208.833 478.167,213.167 476,217.5C 475.333,220.5 475.333,223.5 476,226.5C 477.067,227.191 478.234,227.691 479.5,228C 474.712,229.01 472.379,228.843 472.5,227.5C 472.665,223.818 472.499,220.152 472,216.5C 470.088,212.34 467.921,208.34 465.5,204.5C 464.675,203.614 463.675,203.281 462.5,203.5 Z"/></g>
<g><path style="opacity:1" fill="#f4f0e9" d="M 564.5,221.5 C 564.409,223.698 565.075,224.031 566.5,222.5C 566.435,224.696 565.768,226.696 564.5,228.5C 561.695,220.62 559.195,212.62 557,204.5C 556.25,203.874 555.416,203.374 554.5,203C 557.167,202.333 559.833,202.333 562.5,203C 561.484,203.519 560.818,204.353 560.5,205.5C 562.045,210.796 563.378,216.13 564.5,221.5 Z"/></g>
<g><path style="opacity:1" fill="#f3eee6" d="M 572.5,210.5 C 572.267,208.938 571.6,207.605 570.5,206.5C 570.5,205.5 570.5,204.5 570.5,203.5C 571.5,203.5 572.5,203.5 573.5,203.5C 575.225,209.844 577.058,216.178 579,222.5C 580.993,216.193 582.826,209.859 584.5,203.5C 582.956,202.272 584.623,202.106 589.5,203C 587.939,203.318 586.772,204.151 586,205.5C 583.788,213.301 581.288,220.968 578.5,228.5C 576.193,222.605 574.193,216.605 572.5,210.5 Z"/></g>
<g><path style="opacity:1" fill="#f3efe7" d="M 391.5,202.5 C 392.167,202.5 392.5,202.833 392.5,203.5C 389.325,203.84 387.159,205.507 386,208.5C 385.333,212.833 385.333,217.167 386,221.5C 389.772,228.232 394.772,229.232 401,224.5C 401.448,226.409 400.615,227.576 398.5,228C 385.244,229.74 379.744,223.907 382,210.5C 383.528,205.799 386.695,203.132 391.5,202.5 Z"/></g>
<g><path style="opacity:1" fill="#e7d8c1" d="M 613.5,211.5 C 612.167,210.167 610.833,210.167 609.5,211.5C 608.957,211.44 608.624,211.107 608.5,210.5C 610.833,209.167 613.167,209.167 615.5,210.5C 615.043,211.298 614.376,211.631 613.5,211.5 Z"/></g>
<g><path style="opacity:1" fill="#f6f4ef" d="M 332.5,210.5 C 333.833,210.5 335.167,210.5 336.5,210.5C 336.181,215.363 336.514,220.03 337.5,224.5C 337.414,225.496 337.748,226.329 338.5,227C 340.134,227.494 341.801,227.66 343.5,227.5C 340.531,229.006 337.698,228.673 335,226.5C 334.501,221.511 334.334,216.511 334.5,211.5C 332.599,211.754 331.933,211.42 332.5,210.5 Z"/></g>
<g><path style="opacity:1" fill="#e8d9c3" d="M 332.5,210.5 C 333.919,209.549 335.585,209.216 337.5,209.5C 337.5,214.5 337.5,219.5 337.5,224.5C 336.514,220.03 336.181,215.363 336.5,210.5C 335.167,210.5 333.833,210.5 332.5,210.5 Z"/></g>
<g><path style="opacity:1" fill="#f3ede5" d="M 343.5,227.5 C 345.065,224.81 345.731,221.81 345.5,218.5C 345.426,215.713 344.76,213.213 343.5,211C 344.905,209.731 346.571,209.231 348.5,209.5C 348.5,215.5 348.5,221.5 348.5,227.5C 349.972,228.957 348.305,228.957 343.5,227.5 Z"/></g>
<g><path style="opacity:1" fill="#f2ede4" d="M 362.5,211.5 C 360.668,216.578 360.002,221.911 360.5,227.5C 362.044,228.728 360.377,228.894 355.5,228C 356.771,225.446 357.438,222.613 357.5,219.5C 357.438,216.387 356.771,213.554 355.5,211C 356.905,209.731 358.571,209.231 360.5,209.5C 360.131,211.993 360.797,212.66 362.5,211.5 Z"/></g>
<g><path style="opacity:1" fill="#f5f2ec" d="M 362.5,211.5 C 366.075,208.492 367.742,209.492 367.5,214.5C 366.5,214.5 365.5,214.5 364.5,214.5C 364.715,212.821 364.048,211.821 362.5,211.5 Z"/></g>
<g><path style="opacity:1" fill="#f3eee6" d="M 412.5,209.5 C 415.685,209.02 418.519,209.686 421,211.5C 421.333,216.5 421.667,221.5 422,226.5C 422.75,227.126 423.584,227.626 424.5,228C 419.352,228.284 414.185,228.118 409,227.5C 408.805,221.19 411.971,217.857 418.5,217.5C 419.643,210.629 417.31,208.962 411.5,212.5C 412.911,214.017 412.744,215.351 411,216.5C 408.822,213.547 409.322,211.214 412.5,209.5 Z"/></g>
<g><path style="opacity:1" fill="#f3eee6" d="M 430.5,209.5 C 432.124,209.36 433.29,210.027 434,211.5C 438.285,208.201 440.451,209.201 440.5,214.5C 439.022,214.762 437.689,214.429 436.5,213.5C 437.629,211.471 437.129,211.137 435,212.5C 433.612,217.372 433.112,222.372 433.5,227.5C 432.5,228.833 431.5,228.833 430.5,227.5C 430.5,222.167 430.5,216.833 430.5,211.5C 429.448,211.649 428.448,211.483 427.5,211C 428.737,210.768 429.737,210.268 430.5,209.5 Z"/></g>
<g><path style="opacity:1" fill="#f4f0e8" d="M 518.5,210.5 C 519.833,210.5 521.167,210.5 522.5,210.5C 522.179,216.026 522.512,221.36 523.5,226.5C 523.918,227.222 524.584,227.722 525.5,228C 523.251,228.863 521.418,228.363 520,226.5C 516.899,228.72 513.565,229.053 510,227.5C 509.239,221.809 508.072,216.309 506.5,211C 507.905,209.731 509.571,209.231 511.5,209.5C 511.334,214.844 511.501,220.177 512,225.5C 514.966,228.265 517.633,227.932 520,224.5C 520.499,220.179 520.666,215.846 520.5,211.5C 518.599,211.754 517.933,211.42 518.5,210.5 Z"/></g>
<g><path style="opacity:1" fill="#e9dcc8" d="M 518.5,210.5 C 519.919,209.549 521.585,209.216 523.5,209.5C 523.5,215.167 523.5,220.833 523.5,226.5C 522.512,221.36 522.179,216.026 522.5,210.5C 521.167,210.5 519.833,210.5 518.5,210.5 Z"/></g>
<g><path style="opacity:1" fill="#f4efe8" d="M 530.5,210.5 C 531.833,210.5 533.167,210.5 534.5,210.5C 534.263,211.791 534.596,212.791 535.5,213.5C 534.926,218.648 535.593,223.482 537.5,228C 534.833,228.667 532.167,228.667 529.5,228C 530.416,227.626 531.25,227.126 532,226.5C 532.499,221.511 532.666,216.511 532.5,211.5C 530.599,211.754 529.933,211.42 530.5,210.5 Z"/></g>
<g><path style="opacity:1" fill="#f3efe8" d="M 539.5,209.5 C 542.084,210.048 543.084,211.715 542.5,214.5C 540.517,214.843 539.183,214.176 538.5,212.5C 539.404,211.791 539.737,210.791 539.5,209.5 Z"/></g>
<g><path style="opacity:1" fill="#f2ede4" d="M 594.5,209.5 C 598.287,208.814 601.454,209.814 604,212.5C 603.913,217.963 604.746,223.13 606.5,228C 604.432,228.687 602.432,228.52 600.5,227.5C 594.321,231.121 591.154,229.454 591,222.5C 593.781,219.195 597.281,217.528 601.5,217.5C 602.295,212.291 600.295,210.291 595.5,211.5C 594.833,213.167 594.167,214.833 593.5,216.5C 591.717,215.652 591.217,214.319 592,212.5C 593.045,211.627 593.878,210.627 594.5,209.5 Z"/></g>
<g><path style="opacity:1" fill="#f2ede4" d="M 609.5,211.5 C 610.833,210.167 612.167,210.167 613.5,211.5C 614.697,215.922 616.197,220.256 618,224.5C 618.898,221.931 620.065,219.598 621.5,217.5C 619.938,223.861 617.605,229.861 614.5,235.5C 614.866,233.095 615.533,230.762 616.5,228.5C 614.728,222.497 612.395,216.83 609.5,211.5 Z"/></g>
<g><path style="opacity:1" fill="#f3efe7" d="M 315.5,209.5 C 325.184,209.159 329.018,213.825 327,223.5C 325.954,225.09 324.787,226.59 323.5,228C 322.5,228.667 321.5,228.667 320.5,228C 324.259,224.257 325.426,219.757 324,214.5C 320.667,209.167 317.333,209.167 314,214.5C 312.574,219.757 313.741,224.257 317.5,228C 316.5,228.667 315.5,228.667 314.5,228C 309.001,221.502 309.334,215.335 315.5,209.5 Z"/></g>
<g><path style="opacity:1" fill="#e8d9c3" d="M 530.5,210.5 C 532.546,209.035 534.38,209.368 536,211.5C 536.816,210.177 537.983,209.511 539.5,209.5C 539.737,210.791 539.404,211.791 538.5,212.5C 538.565,212.062 538.399,211.728 538,211.5C 537.292,212.381 536.458,213.047 535.5,213.5C 534.596,212.791 534.263,211.791 534.5,210.5C 533.167,210.5 531.833,210.5 530.5,210.5 Z"/></g>
<g><path style="opacity:1" fill="#ede2d2" d="M 621.5,217.5 C 621.519,215.94 621.852,214.44 622.5,213C 621.978,212.05 621.311,211.216 620.5,210.5C 622.5,209.167 624.5,209.167 626.5,210.5C 624.566,212.724 622.899,215.058 621.5,217.5 Z"/></g>
<g><path style="opacity:1" fill="#f3eee5" d="M 490.5,209.5 C 500.315,209.746 503.815,214.746 501,224.5C 495.561,231.288 490.561,230.955 486,223.5C 484.309,217.61 485.809,212.944 490.5,209.5 Z"/></g>
<g><path style="opacity:1" fill="#d5b68b" d="M 491.5,210.5 C 494.099,210.549 496.266,211.549 498,213.5C 498.914,218.196 498.414,222.696 496.5,227C 492.564,228.461 490.064,227.295 489,223.5C 487.842,218.693 488.676,214.36 491.5,210.5 Z"/></g>
<g><path style="opacity:1" fill="#ebdfcd" d="M 570.5,206.5 C 571.6,207.605 572.267,208.938 572.5,210.5C 571.883,210.389 571.383,210.056 571,209.5C 569.943,214.101 568.443,218.434 566.5,222.5C 565.075,224.031 564.409,223.698 564.5,221.5C 565.586,221.38 566.253,220.713 566.5,219.5C 567.47,214.932 568.803,210.599 570.5,206.5 Z"/></g>
<g><path style="opacity:1" fill="#d5b58a" d="M 416.5,219.5 C 418.308,220.918 418.975,222.918 418.5,225.5C 416.283,226.369 413.95,226.702 411.5,226.5C 411.241,222.763 412.907,220.43 416.5,219.5 Z"/></g>
<g><path style="opacity:1" fill="#e3d0b4" d="M 416.5,219.5 C 417.209,218.596 418.209,218.263 419.5,218.5C 419.802,221.059 419.468,223.393 418.5,225.5C 418.975,222.918 418.308,220.918 416.5,219.5 Z"/></g>
<g><path style="opacity:1" fill="#d6b88e" d="M 600.5,218.5 C 601.629,220.628 601.796,222.961 601,225.5C 596.601,228.71 594.268,227.71 594,222.5C 596.013,220.752 598.18,219.418 600.5,218.5 Z"/></g>
<g><path style="opacity:1" fill="#f1eadf" d="M 445.5,224.5 C 448.209,227.194 448.042,229.861 445,232.5C 444.866,229.855 445.033,227.188 445.5,224.5 Z"/></g>
<g><path style="opacity:1" fill="#f2ece2" d="M 614.5,235.5 C 613.998,237.085 612.998,237.585 611.5,237C 609.963,235.89 609.297,234.39 609.5,232.5C 610.5,232.5 611.5,232.5 612.5,232.5C 612.285,234.179 612.952,235.179 614.5,235.5 Z"/></g>
</svg>
