<?xml version="1.0" encoding="UTF-8"?>
<!DOCTYPE svg PUBLIC "-//W3C//DTD SVG 1.1//EN" "http://www.w3.org/Graphics/SVG/1.1/DTD/svg11.dtd">
<svg xmlns="http://www.w3.org/2000/svg" version="1.1" width="200px" height="200px" style="shape-rendering:geometricPrecision; text-rendering:geometricPrecision; image-rendering:optimizeQuality; fill-rule:evenodd; clip-rule:evenodd" xmlns:xlink="http://www.w3.org/1999/xlink">
<g><path style="opacity:0.967" fill="#f7f6f2" d="M 181.5,103.5 C 180.833,103.5 180.5,103.833 180.5,104.5C 176.135,110.129 176.802,115.295 182.5,120C 184.74,120.977 187.073,121.477 189.5,121.5C 189.797,125.767 189.464,129.934 188.5,134C 181.174,134.5 173.841,134.666 166.5,134.5C 163.711,116.761 153.377,109.261 135.5,112C 125.479,116.19 119.812,123.69 118.5,134.5C 101.833,134.5 85.1667,134.5 68.5,134.5C 67.0157,120.015 59.0157,112.349 44.5,111.5C 29.9843,112.349 21.9843,120.015 20.5,134.5C 17.7531,134.813 15.0865,134.48 12.5,133.5C 7.86165,120.459 8.69499,107.792 15,95.5C 19.8527,89.2414 26.186,85.5747 34,84.5C 48.1794,44.2267 74.6794,32.7267 113.5,50C 125.898,58.6028 134.565,70.1028 139.5,84.5C 155.372,85.3966 169.206,91.0633 181,101.5C 181.464,102.094 181.631,102.761 181.5,103.5 Z M 76.5,48.5 C 102.081,47.9031 119.081,59.7364 127.5,84C 110.523,83.6248 93.523,83.4582 76.5,83.5C 76.5,71.8333 76.5,60.1667 76.5,48.5 Z M 68.5,50.5 C 69.6491,50.7911 70.3158,51.6244 70.5,53C 69.1694,63.1368 68.1694,73.3034 67.5,83.5C 59.4864,83.5676 51.4864,83.901 43.5,84.5C 47.3001,69.7181 55.6334,58.3848 68.5,50.5 Z M 22.5,93.5 C 23.2389,93.369 23.9056,93.5357 24.5,94C 22.5987,96.9696 21.0987,100.136 20,103.5C 19.2904,104.973 18.1238,105.64 16.5,105.5C 17.4424,100.948 19.4424,96.9485 22.5,93.5 Z"/></g>
<g><path style="opacity:0.845" fill="#f7f6f2" d="M 181.5,103.5 C 186.607,107.977 189.107,113.643 189,120.5C 181.734,117.64 178.901,112.307 180.5,104.5C 181.167,104.5 181.5,104.167 181.5,103.5 Z"/></g>
<g><path style="opacity:0.919" fill="#f7f6f2" d="M 39.5,115.5 C 53.3964,114.02 61.8964,120.02 65,133.5C 63.7081,153.908 53.2081,161.075 33.5,155C 23.2424,147.271 20.7424,137.438 26,125.5C 29.416,120.558 33.916,117.224 39.5,115.5 Z M 56.5,124.5 C 60.1903,127.525 61.857,131.192 61.5,135.5C 60.0816,131.667 58.4149,128 56.5,124.5 Z M 40.5,126.5 C 51.1603,126.314 55.327,131.314 53,141.5C 49.1,146.533 44.2667,147.7 38.5,145C 31.9439,138.135 32.6105,131.969 40.5,126.5 Z"/></g>
<g><path style="opacity:0.915" fill="#f7f6f2" d="M 137.5,115.5 C 156.493,114.659 164.993,123.659 163,142.5C 158.377,153.901 149.877,158.734 137.5,157C 122.171,150.541 118.004,139.708 125,124.5C 128.299,120.118 132.466,117.118 137.5,115.5 Z M 139.5,126.5 C 149.482,125.982 153.649,130.648 152,140.5C 148.184,146.742 143.017,148.075 136.5,144.5C 130.586,137.317 131.586,131.317 139.5,126.5 Z M 156.5,126.5 C 159.331,128.832 160.498,131.832 160,135.5C 158.729,132.516 157.562,129.516 156.5,126.5 Z"/></g>
<g><path style="opacity:0.887" fill="#f7f6f2" d="M 42.5,130.5 C 48.3559,130.854 50.5226,133.854 49,139.5C 43.927,143.864 40.427,142.864 38.5,136.5C 38.6695,133.674 40.0029,131.674 42.5,130.5 Z"/></g>
<g><path style="opacity:0.892" fill="#f7f6f1" d="M 141.5,130.5 C 147.771,131.374 149.604,134.707 147,140.5C 140.035,143.505 137.035,141.172 138,133.5C 139.145,132.364 140.312,131.364 141.5,130.5 Z"/></g>
</svg>
